<?xml version="1.0" encoding="utf-8"?>
<!-- Generator: Adobe Illustrator 28.1.0, SVG Export Plug-In . SVG Version: 6.00 Build 0)  -->
<svg version="1.1"
	 id="svg8" xmlns:sodipodi="http://sodipodi.sourceforge.net/DTD/sodipodi-0.dtd" xmlns:inkscape="http://www.inkscape.org/namespaces/inkscape" xmlns:svg="http://www.w3.org/2000/svg" xmlns:dc="http://purl.org/dc/elements/1.1/" xmlns:cc="http://creativecommons.org/ns#" xmlns:rdf="http://www.w3.org/1999/02/22-rdf-syntax-ns#" inkscape:export-filename="C:\Users\Daniele Galano\Desktop\Grafica\logo PIC\sticker2.png" sodipodi:docname="PiC logo rebranding.svg"
	 xmlns="http://www.w3.org/2000/svg" xmlns:xlink="http://www.w3.org/1999/xlink" x="0px" y="0px" viewBox="0 0 3000 3000"
	 style="enable-background:new 0 0 3000 3000;" xml:space="preserve">
<style type="text/css">
	.st0{fill:#FFFFFF;}
	.st1{fill:#FB6400;}
	.st2{fill:#FE7E29;}
	.st3{fill:#E6E6E6;}
	.st4{fill:#FEDB53;}
	.st5{fill:none;}
	.st6{fill:#313131;stroke:#FFFFFF;stroke-width:12.9983;stroke-linecap:round;stroke-linejoin:round;stroke-miterlimit:151.1811;}
	.st7{fill:#F9F9F9;}
	.st8{fill:none;stroke:#FFFFFF;stroke-width:12.7624;stroke-linecap:square;stroke-miterlimit:151.1811;}
	.st9{fill:none;stroke:#FFFFFF;stroke-width:12.6434;stroke-linecap:square;stroke-miterlimit:151.1811;}
	.st10{fill:none;stroke:#FFFFFF;stroke-width:12.6551;stroke-linecap:square;stroke-miterlimit:151.1811;}
	.st11{fill:none;stroke:#FFFFFF;stroke-width:12.9983;stroke-linecap:square;stroke-miterlimit:151.1811;}
	.st12{fill:none;stroke:#FFFFFF;stroke-width:13.2394;stroke-linecap:square;stroke-miterlimit:151.1811;}
	.st13{fill:#313131;stroke:#FFFFFF;stroke-width:1.1489;stroke-linecap:square;stroke-miterlimit:151.1811;}
	.st14{fill:#313131;stroke:#FFFFFF;stroke-width:0.5745;stroke-linecap:square;stroke-miterlimit:151.1811;}
	.st15{fill:#313131;stroke:#313131;stroke-width:0.7149;stroke-linecap:round;stroke-linejoin:round;stroke-miterlimit:151.1811;}
	.st16{fill:#FB6400;stroke:#FFFFFF;stroke-width:219.0699;stroke-linecap:round;stroke-miterlimit:151.1811;}
</style>
<sodipodi:namedview  bordercolor="#666666" borderopacity="1.0" id="base" inkscape:current-layer="layer1" inkscape:cx="224.42589" inkscape:cy="120.71437" inkscape:document-units="px" inkscape:guide-bbox="true" inkscape:pageopacity="0.0" inkscape:pageshadow="2" inkscape:showpageshadow="false" inkscape:window-height="2114" inkscape:window-maximized="0" inkscape:window-width="1918" inkscape:window-x="-10" inkscape:window-y="0" inkscape:zoom="1.4142136" pagecolor="#ffffff" showgrid="false" showguides="true" units="px">
	<sodipodi:guide  id="guide3487" inkscape:locked="false" orientation="0,1" position="-332.35422,617.06815"></sodipodi:guide>
	<sodipodi:guide  id="guide3489" inkscape:locked="false" orientation="0,1" position="-332.35422,481.60148"></sodipodi:guide>
	<sodipodi:guide  id="guide4082" inkscape:locked="false" orientation="1,0" position="-201.36029,153.72846"></sodipodi:guide>
</sodipodi:namedview>
<g id="layer1" transform="translate(0,-161.53333)" inkscape:groupmode="layer" inkscape:label="Livello 1">
	<g id="g3896" transform="matrix(2.7074408,0,0,2.7074408,132.20203,-102.24398)">
		<rect id="rect3892" x="-48.9" y="97.5" class="st0" width="1108.2" height="1108.2"/>
		<rect id="rect3894" x="-13.9" y="132.4" class="st1" width="1038.3" height="1038.3"/>
	</g>
	<circle id="circle3898" class="st2" cx="1503.7" cy="2290.7" r="969.6"/>
	<path id="path3900" inkscape:connector-curvature="0" sodipodi:nodetypes="cscscscsccscsc" class="st3" d="M144.9,1071.1
		c0,0,35.6-416,323.3-582.1c364.7-210.6,694.2-28.3,694.2-28.3s397.9-704.5,1122.8-431.6c733.8,276.2,543.9,1035.3,543.9,1035.3
		s239.2,81.7,239.2,390.1c0,409.8-395.7,379.1-395.7,379.1s-155.7,196.5-404,198.9c-311.8,3-433-203-433-203H1386
		c0,0-109.1,395.1-567.7,395.7c-442,0.6-573.9-397.8-573.9-397.8S-68.4,1816.1-68.4,1469C-68.4,1149.5,144.9,1071.1,144.9,1071.1
		L144.9,1071.1z"/>
	<path id="path3902" inkscape:connector-curvature="0" sodipodi:nodetypes="cscscscsccscsc" class="st0" d="M261.2,1103.5
		c0,0,32.5-380.3,295.6-532.1c333.4-192.5,634.6-25.9,634.6-25.9s363.7-644.1,1026.5-394.6c670.9,252.5,497.3,946.5,497.3,946.5
		s218.7,74.7,218.7,356.6c0,374.6-361.8,346.6-361.8,346.6s-142.3,179.7-369.3,181.8c-285,2.7-395.9-185.6-395.9-185.6h-411
		c0,0-99.7,361.2-519,361.8c-404.1,0.5-524.7-363.7-524.7-363.7s-286-10.3-286-327.7C66.2,1175.2,261.2,1103.5,261.2,1103.5z"/>
	<circle id="circle3904" class="st4" cx="1503.7" cy="2603.5" r="581.2"/>
	<g id="flowRoot3912" transform="matrix(2.5141107,0,0,2.5141107,508.7703,424.12253)">
		<path id="path2339" d="M65.2,249.4c-2.1,0-3.7-0.4-4.8-1.1c-1.1-1.1-1.6-2.3-1.6-3.7c0.4-1.4,1.1-2.7,2.1-3.7
			c1.4-1.1,3.5-1.6,6.4-1.6c3.9,0,8-0.5,12.2-1.6c4.3-1.1,7.8-2.7,10.6-4.8c7.4-4.6,13.3-11.2,17.5-19.7c4.6-8.5,7.6-16.7,9-24.5
			c1.8-8.2,1.8-15.1,0-20.7c-1.4-6-4.4-8.9-9-8.5c-3.5,0.4-6.7,1.6-9.6,3.7c-2.8,2.1-5.5,4.6-8,7.4c-2.5,2.8-4.8,6-6.9,9.6
			c-2.1,3.2-3.9,6-5.3,8.5c-2.8,4.6-6.9,12.8-12.2,24.5c-5,11.3-9.9,23.4-14.9,36.1c-4.6,12.8-8.5,24.6-11.7,35.6
			c-3.2,10.6-4.1,17.4-2.7,20.2c1.1,2.1,0.9,3.5-0.5,4.3c-1.1,0.7-2.5,0.7-4.3,0c-1.4-1.1-2.8-2.8-4.3-5.3
			c-1.1-2.8-1.4-6.6-1.1-11.2c0.7-11,4.3-25.7,10.6-44.1c6.4-18.4,13.5-40.2,21.3-65.4c3.2-10.6,3.4-18.1,0.5-22.3
			c-2.5-4.6-6.6-5.8-12.2-3.7c-7.1,2.5-13.3,8-18.6,16.5c-5.3,8.5-8,16.8-8,25c0,3.9-0.9,6.7-2.7,8.5c-1.8,1.8-3.5,2.5-5.3,2.1
			c-1.8-0.4-3.5-1.6-5.3-3.7c-1.4-2.1-1.8-5.1-1.1-9c1.4-6.4,3.7-12,6.9-17c3.2-5,6.6-9.2,10.1-12.8c3.9-3.9,7.8-6.9,11.7-9
			c4.3-2.1,8-3.5,11.2-4.3c8.2-1.1,15.1,0.4,20.7,4.3c5.7,3.9,7.8,11.5,6.4,22.9c5.3-8.2,11-14.5,17-19.1c6.4-4.6,12.2-7.3,17.5-8
			c10.3-1.4,17.2,1.4,20.7,8.5c3.9,6.7,5,15.1,3.2,25c-1.4,9.6-5.3,19.5-11.7,29.8c-6.4,9.9-14.5,17.5-24.5,22.9
			c-6.7,3.5-13.1,6-19.1,7.4C69.8,248.7,66.3,249.4,65.2,249.4L65.2,249.4z M116.8,209c3.2-4.3,5.3-8.9,6.4-13.8
			c1.4-5,2.1-9.6,2.1-13.8c0-4.3-0.4-7.8-1.1-10.6c-0.7-2.8-1.2-4.4-1.6-4.8c0.7,1.4,1.1,4.1,1.1,8c0.4,3.5,0.2,7.4-0.5,11.7
			c-0.4,4.3-1.1,8.7-2.1,13.3C120,203.2,118.6,206.5,116.8,209L116.8,209z M31.2,290.4c0.4,0.7,0.7,0.5,1.1-0.5
			c0.4-1.1,0.2-1.6-0.5-1.6C30,288.2,29.8,288.9,31.2,290.4z M32.3,282.9c0.7,0.7,1.2,0.7,1.6,0c0.4-1.1,0.2-1.8-0.5-2.1
			c-0.7,0-1.2,0.4-1.6,1.1C31.4,282.2,31.6,282.6,32.3,282.9L32.3,282.9z M30.7,297.8c0.7,0.4,1.1,0,1.1-1.1
			c0.4-1.4,0.2-1.9-0.5-1.6C29.1,295.1,28.9,296,30.7,297.8L30.7,297.8z M59.9,201.6c0.7-2.5,0.2-1.8-1.6,2.1
			c-1.8,3.9-3.9,8.9-6.4,14.9c-2.1,5.7-4.1,11.3-5.8,17c-1.8,5.7-2.5,8.9-2.1,9.6c0.4-1.8,1.2-4.4,2.7-8c1.4-3.9,2.8-8,4.3-12.2
			c1.8-4.6,3.5-8.9,5.3-12.8C58,208,59.2,204.4,59.9,201.6L59.9,201.6z M64.2,188.3c1.1,0.4,1.8,0,2.1-1.1c0.4-1.4,0.2-2.3-0.5-2.7
			c-0.7,0-1.4,0.5-2.1,1.6C63.3,187.2,63.5,187.9,64.2,188.3z M61.5,197.3c1.1,0,1.8-0.5,2.1-1.6s0.2-1.8-0.5-2.1
			c-0.7,0-1.4,0.5-2.1,1.6C60.6,196.3,60.8,197,61.5,197.3z"/>
		<path id="path2341" d="M162.3,206.4c5.3,0.4,9,1.9,11.2,4.8c2.1,2.5,3,5.7,2.7,9.6c-0.4,3.9-1.9,8-4.8,12.2
			c-2.5,3.9-5.5,7.4-9,10.6c-5.7,4.6-11.5,8.3-17.5,11.2c-6,2.5-11.9,4.8-17.5,6.9c-1.1,3.2-1.6,6.7-1.6,10.6c0,3.5,0.7,6.7,2.1,9.6
			c1.4,2.8,3.5,5,6.4,6.4c3.2,1.1,7.3,0.7,12.2-1.1c10.3-3.9,19.1-10.6,26.6-20.2c7.4-9.6,14.4-19.7,20.7-30.3
			c1.1-1.1,1.9-1.1,2.7,0c0.7,0.7,0.9,1.6,0.5,2.7c-2.8,5.3-6.4,11.3-10.6,18.1c-4.3,6.7-9.2,12.9-14.9,18.6
			c-5.3,5.7-11.3,10.3-18.1,13.8c-6.4,3.5-13.3,4.8-20.7,3.7c-8.2-1.1-13.8-4.6-17-10.6c-3.2-6.4-3.9-14-2.1-22.9
			c1.4-6.4,3.7-12.8,6.9-19.1c2.8-6.7,6.4-12.6,10.6-17.5c4.6-5.3,9.6-9.6,14.9-12.8C151.2,207.4,156.7,206,162.3,206.4L162.3,206.4
			z M161.3,214.3c-2.8,0.7-6,2.5-9.6,5.3c-3.2,2.8-6.6,6.4-10.1,10.6c-3.2,3.9-6,8.3-8.5,13.3c-2.5,4.6-4.1,9-4.8,13.3
			c6.4-2.5,12-5,17-7.4c5.3-2.8,9.9-6.2,13.8-10.1c2.5-2.1,4.6-4.8,6.4-8c1.8-3.2,2.8-6.2,3.2-9c0.7-2.8,0.4-5-1.1-6.4
			C166.6,214.2,164.5,213.6,161.3,214.3L161.3,214.3z M161.8,209.6c-4.3-0.4-8,0.4-11.2,2.1c-3.2,1.4-6,3.4-8.5,5.8
			c-2.5,2.1-4.4,4.3-5.8,6.4c-1.1,2.1-1.6,3.4-1.6,3.7c0.7-1.1,1.8-2.5,3.2-4.3c1.8-2.1,3.9-4.1,6.4-5.8c2.5-2.1,5.1-3.9,8-5.3
			C155.1,210.4,158.3,209.6,161.8,209.6L161.8,209.6z M132,230.3c0.4,0.7,0.9,0.9,1.6,0.5c1.1-0.7,1.2-1.4,0.5-2.1
			C132.7,227.3,132,227.8,132,230.3L132,230.3z M128.8,235.6c0.4,0.7,0.9,0.9,1.6,0.5c0.7-0.7,0.7-1.4,0-2.1c-0.7-0.7-1.2-0.7-1.6,0
			C128.5,234.4,128.5,234.9,128.8,235.6z M121.4,280.3c1.1,5,3,8.2,5.8,9.6c2.8,1.4,5,1.9,6.4,1.6c-1.8,0-3.7-0.5-5.8-1.6
			C126,288.4,123.9,285.2,121.4,280.3z"/>
		<path id="path2343" d="M282.9,231.4c0.4-0.7,1.1-0.9,2.1-0.5c1.4,0.4,1.9,0.9,1.6,1.6c-2.1,5-5,11.2-8.5,18.6
			c-3.5,7.1-7.6,14-12.2,20.7c-4.6,6.7-9.4,12.2-14.4,16.5c-5,4.3-9.9,6-14.9,5.3c-5-0.7-8.3-2.8-10.1-6.4
			c-1.4-3.9-1.9-8.5-1.6-13.8c0.7-5.7,2.1-12,4.3-19.1c2.1-7.1,4.6-14.4,7.4-21.8c2.5-6.7,3.9-11.3,4.3-13.8
			c0.7-2.8,0.4-4.1-1.1-3.7c-1.1,0-3,1.2-5.8,3.7c-2.5,2.5-5.7,5.7-9.6,9.6c-9.9,11.3-17.9,21.3-23.9,29.8
			c-6,8.5-9.6,18.4-10.6,29.8c0,2.8-0.7,4.8-2.1,5.8c-1.4,0.7-2.8,0.5-4.3-0.5c-2.8-2.1-3.7-7.1-2.7-14.9c1.1-8.2,3-16.5,5.8-25
			c2.8-8.9,5.8-17,9-24.5c3.2-7.4,5.3-12,6.4-13.8c2.5-3.2,5.1-5.5,8-6.9c3.2-1.4,5.8-1.9,8-1.6c2.1,0.4,3.4,1.6,3.7,3.7
			c0.4,2.1-0.7,5-3.2,8.5c-4.3,4.6-7.8,9.9-10.6,15.9c-2.8,6-5,10.6-6.4,13.8c2.5-3.9,5.7-8.3,9.6-13.3c4.3-5,8.5-9.6,12.8-13.8
			c4.6-4.3,9-7.6,13.3-10.1c4.3-2.5,8-3.2,11.2-2.1c3.2,1.1,5.7,3.5,7.4,7.4c1.8,3.5,0.7,9.7-3.2,18.6c-0.7,1.1-3,5.3-6.9,12.8
			c-3.5,7.4-6.2,15.1-8,22.9c-1.1,3.5-1.8,6.9-2.1,10.1c0,3.2,0.5,5.5,1.6,6.9c1.4,1.1,3.2,1.1,5.3,0c2.5-1.1,5.7-3.9,9.6-8.5
			c5.7-7.1,10.8-14,15.4-20.7C272.5,251.7,277.6,242.7,282.9,231.4L282.9,231.4z M208,212.2c-3.5,3.9-6.2,8-8,12.2
			c-1.8,4.3-2.5,7.1-2.1,8.5C200,227.3,203.4,220.4,208,212.2L208,212.2z M185.6,278.7c0.7,0.7,1.2,0.5,1.6-0.5
			c0.4-1.4,0.2-2.1-0.5-2.1C184.2,276,183.9,276.9,185.6,278.7z M186.7,270.7c0.7,0.7,1.2,0.5,1.6-0.5c0.4-1.4,0.2-2.1-0.5-2.1
			C185.3,268,184.9,268.9,186.7,270.7z M184,286.6c1.1,0.4,1.9-0.2,2.7-1.6c0.4-1.4-0.4-1.9-2.1-1.6
			C182.8,284.2,182.6,285.2,184,286.6z M234.5,263.8c-0.7,2.8-0.4,2.5,1.1-1.1c1.8-3.5,3.5-8,5.3-13.3c1.8-5.7,3.2-11,4.3-15.9
			c1.4-5.3,1.8-8.3,1.1-9c-0.4,3.9-1.9,9.9-4.8,18.1C238.6,250.7,236.3,257.8,234.5,263.8L234.5,263.8z M230.3,274.9
			c0,0.7,0.4,0.5,1.1-0.5c0.7-1.4,0.7-2.1,0-2.1c-0.7,0-1.2,0.4-1.6,1.1C229.4,273.7,229.6,274.2,230.3,274.9L230.3,274.9z
			 M229.2,282.9c1.1,0.4,1.6-0.2,1.6-1.6c0-1.4-0.4-1.9-1.1-1.6C228,280.4,227.8,281.5,229.2,282.9z"/>
		<path id="path2345" d="M320.7,228.2c-1.4,2.1-3.2,3.5-5.3,4.3c-1.8,0.4-3.4,0.4-4.8,0c-1.1-0.7-1.8-1.8-2.1-3.2
			c0-1.8,0.9-3.7,2.7-5.8c2.5-2.8,4.6-5.5,6.4-8c1.8-2.5,1.9-5.3,0.5-8.5c-1.1-2.8-3-4.3-5.8-4.3c-2.8-0.4-5.7,0.4-8.5,2.1
			c-2.8,1.4-5.5,3.7-8,6.9c-2.1,2.8-3.4,6-3.7,9.6c0,3.2,0.7,6.2,2.1,9c1.4,2.8,3.2,5.7,5.3,8.5c2.1,2.8,4.3,5.7,6.4,8.5
			c2.5,2.5,4.6,5.3,6.4,8.5c3.5,6.7,5,13.1,4.3,19.1c-0.7,6-2.8,11.3-6.4,15.9c-3.5,4.3-8,7.6-13.3,10.1c-5.3,2.1-10.8,2.8-16.5,2.1
			c-5-0.7-8.9-2.3-11.7-4.8c-2.8-2.5-4.6-5.3-5.3-8.5c-0.7-3.5-0.5-7.1,0.5-10.6c1.1-3.5,3-6.6,5.8-9c2.5-2.8,5.1-4.4,8-4.8
			c2.5-0.4,4.3,0,5.3,1.1c1.4,0.7,1.9,2.1,1.6,4.3c0,1.8-1.4,3.5-4.3,5.3c-7.4,5.3-10.8,10.3-10.1,14.9c0.4,4.3,4.1,6.9,11.2,8
			c4.3,0.7,8.2,0,11.7-2.1c3.5-2.1,6.2-5.1,8-9c2.1-3.9,2.8-8.3,2.1-13.3c-0.4-5.3-2.7-11-6.9-17c-2.1-2.5-4.4-5.1-6.9-8
			c-2.1-3.2-4.3-6.2-6.4-9c-1.8-3.2-3-6.4-3.7-9.6c-1.1-3.5-1.2-6.9-0.5-10.1c1.1-5.7,3.7-10.3,8-13.8c4.3-3.9,8.9-6.7,13.8-8.5
			c11-3.2,18.6-0.7,22.9,7.4c1.8,3.2,2.5,6.9,2.1,11.2C325.1,220.9,323.5,224.6,320.7,228.2L320.7,228.2z M307.9,201.1
			c-4.6-0.4-8.3,0.4-11.2,2.1c-2.8,1.4-5.1,3.2-6.9,5.3c-1.8,2.1-3,4.3-3.7,6.4c-0.7,1.8-1.1,2.8-1.1,3.2c0.7-1.1,1.6-2.5,2.7-4.3
			c1.1-1.8,2.5-3.5,4.3-5.3c1.8-1.8,3.9-3.4,6.4-4.8C300.8,201.9,304,201.1,307.9,201.1L307.9,201.1z M285.1,222.3
			c0.7,0.4,1.2,0.2,1.6-0.5c0.4-1.1,0-1.8-1.1-2.1C283.5,219.7,283.3,220.5,285.1,222.3z M285.6,228.7c0.7,0.4,1.2,0.2,1.6-0.5
			c0.7-1.1,0.4-1.8-1.1-2.1c-0.7,0-1.2,0.4-1.6,1.1C284.5,227.5,284.9,228,285.6,228.7L285.6,228.7z M303.7,291.4
			c5-5,7.1-9.6,6.4-13.8c-0.4-4.3-1.2-7.4-2.7-9.6c1.4,3.2,1.9,6.6,1.6,10.1C309,281.7,307.2,286.1,303.7,291.4z"/>
		<path id="path2347" d="M339,278.1c-0.7,3.5-0.9,6.2-0.5,8c0.4,1.4,1.1,2.3,2.1,2.7c1.4,0,2.8-0.4,4.3-1.1c1.8-1.1,3.4-2.3,4.8-3.7
			c6-6,11.7-12.9,17-20.7c5.3-7.8,10.6-16.8,15.9-27.1c0.7-0.7,1.4-0.9,2.1-0.5c1.1,0.4,1.6,0.9,1.6,1.6c-0.4,0.4-0.7,1.2-1.1,2.7
			c-0.4,1.1-0.9,2.5-1.6,4.3c-0.7,1.4-1.6,3.4-2.7,5.8c-1.4,3.2-3.7,7.4-6.9,12.8c-3.2,5-6.9,9.9-11.2,14.9
			c-3.9,4.6-8.2,8.7-12.8,12.2c-4.3,3.2-8.3,4.4-12.2,3.7c-4.3-0.7-7.1-2.5-8.5-5.3c-1.4-3.2-2.1-7.4-2.1-12.8
			c0.7-5.7,2.3-12.4,4.8-20.2c2.1-8.2,4.3-15.1,6.4-20.7c1.1-3.9,2.3-7.4,3.7-10.6c1.8-3.2,3-5.1,3.7-5.8c2.1-3.2,4.4-5.1,6.9-5.8
			c2.8-1.1,5-1.1,6.4,0c1.8,0.7,2.8,2.3,3.2,4.8c0.4,2.5-0.5,5.5-2.7,9c-2.5,4.3-4.8,8.2-6.9,11.7c-1.8,3.5-3.5,7.3-5.3,11.2
			c-1.4,3.5-2.8,7.6-4.3,12.2C341.8,265.7,340.4,271.4,339,278.1L339,278.1z M333.6,286.1c0.4-4.6,0.7-8.9,1.1-12.8
			c0.4-3.9,0.9-7.4,1.6-10.6c-0.7,1.1-1.4,4.4-2.1,10.1C333.1,278.5,332.9,282.9,333.6,286.1L333.6,286.1z M349.6,222.3
			c-2.5,0.7-2.7,1.8-0.5,3.2c0.7,0.4,1.2,0,1.6-1.1C351,223.4,350.6,222.7,349.6,222.3z M345.9,229.8c-0.7,0-1.2,0.4-1.6,1.1
			c0,0.4,0.4,0.9,1.1,1.6c0.7,0.7,1.1,0.5,1.1-0.5C346.7,230.5,346.6,229.8,345.9,229.8L345.9,229.8z M353.8,215.9
			c-2.1,0.7-2.5,1.8-1.1,3.2c0.7,0.7,1.2,0.5,1.6-0.5C355.1,217.5,354.9,216.6,353.8,215.9L353.8,215.9z M356.5,201.6
			c0-1.4,0.7-4.6,2.1-9.6c1.4-5,3-8.9,4.8-11.7c1.4-2.8,3.2-4.4,5.3-4.8c2.5-0.7,4.4-0.5,5.8,0.5c1.8,1.1,2.7,2.8,2.7,5.3
			c0.4,2.1-0.7,4.8-3.2,8c-3.2,3.9-5.8,6.7-8,8.5c-2.1,1.8-3.9,4.1-5.3,6.9c-0.7,1.4-1.6,1.9-2.7,1.6
			C357,206,356.5,204.4,356.5,201.6L356.5,201.6z"/>
		<path id="path2349" d="M421.4,206.4c5.3,0.4,9,1.9,11.2,4.8c2.1,2.5,3,5.7,2.7,9.6c-0.4,3.9-1.9,8-4.8,12.2
			c-2.5,3.9-5.5,7.4-9,10.6c-5.7,4.6-11.5,8.3-17.5,11.2c-6,2.5-11.9,4.8-17.5,6.9c-1.1,3.2-1.6,6.7-1.6,10.6c0,3.5,0.7,6.7,2.1,9.6
			c1.4,2.8,3.5,5,6.4,6.4c3.2,1.1,7.3,0.7,12.2-1.1c10.3-3.9,19.1-10.6,26.6-20.2c7.4-9.6,14.4-19.7,20.7-30.3
			c1.1-1.1,1.9-1.1,2.7,0c0.7,0.7,0.9,1.6,0.5,2.7c-2.8,5.3-6.4,11.3-10.6,18.1c-4.3,6.7-9.2,12.9-14.9,18.6
			c-5.3,5.7-11.3,10.3-18.1,13.8c-6.4,3.5-13.3,4.8-20.7,3.7c-8.2-1.1-13.8-4.6-17-10.6c-3.2-6.4-3.9-14-2.1-22.9
			c1.4-6.4,3.7-12.8,6.9-19.1c2.8-6.7,6.4-12.6,10.6-17.5c4.6-5.3,9.6-9.6,14.9-12.8C410.2,207.4,415.7,206,421.4,206.4L421.4,206.4
			z M420.3,214.3c-2.8,0.7-6,2.5-9.6,5.3c-3.2,2.8-6.6,6.4-10.1,10.6c-3.2,3.9-6,8.3-8.5,13.3c-2.5,4.6-4.1,9-4.8,13.3
			c6.4-2.5,12-5,17-7.4c5.3-2.8,9.9-6.2,13.8-10.1c2.5-2.1,4.6-4.8,6.4-8c1.8-3.2,2.8-6.2,3.2-9c0.7-2.8,0.4-5-1.1-6.4
			C425.6,214.2,423.5,213.6,420.3,214.3L420.3,214.3z M420.8,209.6c-4.3-0.4-8,0.4-11.2,2.1c-3.2,1.4-6,3.4-8.5,5.8
			c-2.5,2.1-4.4,4.3-5.8,6.4c-1.1,2.1-1.6,3.4-1.6,3.7c0.7-1.1,1.8-2.5,3.2-4.3c1.8-2.1,3.9-4.1,6.4-5.8c2.5-2.1,5.1-3.9,8-5.3
			C414.1,210.4,417.3,209.6,420.8,209.6L420.8,209.6z M391.1,230.3c0.4,0.7,0.9,0.9,1.6,0.5c1.1-0.7,1.2-1.4,0.5-2.1
			C391.8,227.3,391.1,227.8,391.1,230.3L391.1,230.3z M387.9,235.6c0.4,0.7,0.9,0.9,1.6,0.5c0.7-0.7,0.7-1.4,0-2.1
			c-0.7-0.7-1.2-0.7-1.6,0C387.5,234.4,387.5,234.9,387.9,235.6z M380.4,280.3c1.1,5,3,8.2,5.8,9.6c2.8,1.4,5,1.9,6.4,1.6
			c-1.8,0-3.7-0.5-5.8-1.6C385,288.4,382.9,285.2,380.4,280.3z"/>
		<path id="path2351" d="M447.9,289.3c-0.4,2.8-1.2,4.8-2.7,5.8c-1.8,0.7-3.4,0.5-4.8-0.5c-3.2-2.1-4.3-7.3-3.2-15.4
			c1.1-8.2,3.2-16.8,6.4-26c2.8-9.2,6-17.7,9.6-25.5c3.5-7.8,6-12.4,7.4-13.8c2.8-3.2,5.7-5.3,8.5-6.4c3.2-1.1,5.7-1.2,7.4-0.5
			c2.1,0.4,3.2,1.6,3.2,3.7c0.4,2.1-0.9,5-3.7,8.5c-5,5.7-8.7,11-11.2,15.9c-2.5,5-4.1,8.7-4.8,11.2c1.4-1.4,3.9-4.6,7.4-9.6
			c3.5-5,7.4-9.7,11.7-14.4c4.6-5,9.2-9,13.8-12.2c5-3.5,9.6-4.8,13.8-3.7c3.9,1.1,6.6,4.6,8,10.6c1.4,5.7,0.2,12-3.7,19.1
			c-1.8,3.5-3.7,5.8-5.8,6.9c-2.1,1.1-4.1,1.2-5.8,0.5c-1.4-0.7-2.3-2.3-2.7-4.8c0-2.5,1.1-5.3,3.2-8.5c0.7-1.4,1.6-3.2,2.7-5.3
			c1.1-2.1,1.9-4.3,2.7-6.4c1.1-2.1,1.6-3.9,1.6-5.3c0-1.8-0.5-2.7-1.6-2.7c-2.1,0-5,1.4-8.5,4.3c-3.5,2.5-7.6,6-12.2,10.6
			c-4.3,4.3-8.7,9.2-13.3,14.9c-4.3,5.3-8.2,10.6-11.7,15.9c-1.1,1.4-2.3,3.5-3.7,6.4c-1.1,2.8-2.3,6-3.7,9.6
			c-1.1,3.2-1.9,6.4-2.7,9.6C448.4,284.7,447.9,287.2,447.9,289.3L447.9,289.3z M464.9,216.5c-3.5,3.9-6.4,8-8.5,12.2
			c-1.8,3.9-2.5,6.6-2.1,8C456.7,231.4,460.3,224.6,464.9,216.5z M444.7,270.7c-1.8,3.2-3,7.1-3.7,11.7c-1.1,4.6-1.4,7.3-1.1,8
			c0.4-2.1,1.1-5.1,2.1-9C443.1,277.1,444,273.5,444.7,270.7L444.7,270.7z M445.2,267.5c0.7,0.7,1.4,0.5,2.1-0.5
			c0.4-1.4,0.2-2.1-0.5-2.1c-0.7,0-1.2,0.4-1.6,1.1C444.5,266.3,444.5,266.8,445.2,267.5L445.2,267.5z M465.9,214.3
			c0.7,0.7,1.4,0.5,2.1-0.5c0.7-1.1,0.7-1.8,0-2.1C465.9,211.7,465.2,212.6,465.9,214.3z"/>
		<path id="path2353" d="M521.7,278.1c-0.7,3.5-0.9,6.2-0.5,8c0.4,1.4,1.1,2.3,2.1,2.7c1.4,0,2.8-0.4,4.3-1.1
			c1.8-1.1,3.4-2.3,4.8-3.7c6-6,11.7-12.9,17-20.7c5.3-7.8,10.6-16.8,15.9-27.1c0.7-0.7,1.4-0.9,2.1-0.5c1.1,0.4,1.6,0.9,1.6,1.6
			c-0.4,0.4-0.7,1.2-1.1,2.7c-0.4,1.1-0.9,2.5-1.6,4.3c-0.7,1.4-1.6,3.4-2.7,5.8c-1.4,3.2-3.7,7.4-6.9,12.8
			c-3.2,5-6.9,9.9-11.2,14.9c-3.9,4.6-8.2,8.7-12.8,12.2c-4.3,3.2-8.3,4.4-12.2,3.7c-4.3-0.7-7.1-2.5-8.5-5.3
			c-1.4-3.2-2.1-7.4-2.1-12.8c0.7-5.7,2.3-12.4,4.8-20.2c2.1-8.2,4.3-15.1,6.4-20.7c1.1-3.9,2.3-7.4,3.7-10.6c1.8-3.2,3-5.1,3.7-5.8
			c2.1-3.2,4.4-5.1,6.9-5.8c2.8-1.1,5-1.1,6.4,0c1.8,0.7,2.8,2.3,3.2,4.8c0.4,2.5-0.5,5.5-2.7,9c-2.5,4.3-4.8,8.2-6.9,11.7
			c-1.8,3.5-3.5,7.3-5.3,11.2c-1.4,3.5-2.8,7.6-4.3,12.2C524.5,265.7,523.1,271.4,521.7,278.1L521.7,278.1z M516.4,286.1
			c0.4-4.6,0.7-8.9,1.1-12.8c0.4-3.9,0.9-7.4,1.6-10.6c-0.7,1.1-1.4,4.4-2.1,10.1C515.8,278.5,515.6,282.9,516.4,286.1L516.4,286.1z
			 M532.3,222.3c-2.5,0.7-2.7,1.8-0.5,3.2c0.7,0.4,1.2,0,1.6-1.1C533.7,223.4,533.4,222.7,532.3,222.3z M528.6,229.8
			c-0.7,0-1.2,0.4-1.6,1.1c0,0.4,0.4,0.9,1.1,1.6c0.7,0.7,1.1,0.5,1.1-0.5C529.5,230.5,529.3,229.8,528.6,229.8L528.6,229.8z
			 M536.6,215.9c-2.1,0.7-2.5,1.8-1.1,3.2c0.7,0.7,1.2,0.5,1.6-0.5C537.8,217.5,537.6,216.6,536.6,215.9L536.6,215.9z M539.2,201.6
			c0-1.4,0.7-4.6,2.1-9.6c1.4-5,3-8.9,4.8-11.7c1.4-2.8,3.2-4.4,5.3-4.8c2.5-0.7,4.4-0.5,5.8,0.5c1.8,1.1,2.7,2.8,2.7,5.3
			c0.4,2.1-0.7,4.8-3.2,8c-3.2,3.9-5.8,6.7-8,8.5c-2.1,1.8-3.9,4.1-5.3,6.9c-0.7,1.4-1.6,1.9-2.7,1.6
			C539.7,206,539.2,204.4,539.2,201.6L539.2,201.6z"/>
	</g>
	<g id="flowRoot3920" transform="matrix(1.1839685,0,0,1.0995484,268.57828,311.03806)">
		<path id="path2318" d="M597.7,1031.5V861.4h21.8c5,0,8.5-3.2,8.5-8c0-5-3.2-8-8.2-8h-35.1c-5.6,0-9.3,3.7-9.3,8.5v185
			c0,4.8,3.7,8.5,9.3,8.5h35.1c5,0,8.2-3.2,8.2-8.2c0-4.8-3.5-7.7-8.5-7.7H597.7z"/>
		<path id="path2320" d="M773.6,981v-96.2c0-3.2-2.4-5.3-7.4-5.3h-38c-6.9,0-10.4,2.9-10.4,9c0,6.1,3.7,9.3,10.9,9.3h25.2V981h-39.6
			c-7.2,0-10.9,2.9-10.9,9c0,6.1,3.5,9.3,10.4,9.3h100.7c7.7,0,10.6-1.9,10.6-9.3c0-6.4-3.2-9-9.8-9L773.6,981z M749.4,842
			c0,10.6,2.7,12.8,13.6,12.8c12.5,0,13.3-2.9,13.3-16.5c0-13.6-1.3-17.5-13.3-17.5C751,820.7,749.4,824.7,749.4,842L749.4,842z"/>
		<path id="path2322" d="M873.1,981h-2.7c-10.6,0-15.1,1.6-15.1,9c0,6.1,3.5,9.3,10.9,9.3h30.6c9.8,0,13.8-0.5,13.8-9.3
			c0-7.2-3.5-9.3-12.5-9.3c-1.6,0-3.5,0.3-5.6,0.3v-54c0-19.4,18.1-31.1,33.8-31.1c17,0,26.6,10.4,26.6,31.1v54h-4.3
			c-9.3,0-13,1.9-13,9c0,8.5,3.7,9.3,13,9.3h28.7c9.3,0,13.8-1.9,13.8-9.3c0-6.6-4-9-12.2-9H973v-58.7c0-30-17.5-46.2-42.3-46.2
			c-13.6,0-25.5,5.8-38,17.5v-8.8c0-3.2-2.4-5.3-7.4-5.3h-11.7c-12.5,0-18.3,0-18.3,9c0,6.6,3.7,9.3,12,9.3h5.8L873.1,981z"/>
		<path id="path2324" d="M1122.3,849.7c-12.5-5.3-24.2-8.2-36.1-8.2c-43.1,0-74.4,34.8-74.4,81.1c0,47.6,31.9,80.5,73.9,80.5
			c16.7,0,30.6-4.5,44.9-13.8c9.6-6.1,14.6-10.4,14.6-16.2c0-5.3-4-9.3-9.6-9.3c-4.5,0-9.8,5.8-18.3,10.6c-10.1,5.6-21,8.5-30.6,8.5
			c-29,0-51.3-22.6-51.3-60.3c0-40.9,20.7-63.5,50.8-63.5c17.3,0,30.6,9.6,33.8,21.8c2.9,11.7,1.6,18.1,12.8,18.1
			c7.7,0,9.3-3.5,9.3-10.4c0-1.9-0.5-12.2-0.5-32.2c0-9-0.5-13-9.6-13C1126.8,843.3,1124.2,845.2,1122.3,849.7L1122.3,849.7z"/>
		<path id="path2326" d="M1309,939.5c0-35.9-26.6-63-67.8-63c-41.2,0-68,26.8-68,63c0,36.1,26.8,63,68,63
			C1282.4,1002.5,1309,975.7,1309,939.5z M1241.3,984.4c-26.8,0-45.4-19.1-45.4-44.9c0-25.8,18.6-45.2,45.4-45.2
			s45.4,19.4,45.4,45.2C1286.7,965.6,1268.1,984.4,1241.3,984.4z"/>
		<path id="path2328" d="M1355.2,941.1c0-25.8,16.5-42.8,40.9-42.8c24.2,0,40.9,17.5,40.9,41.5c0,23.9-17.3,42-41.2,42
			C1372.7,981.8,1355.2,965.6,1355.2,941.1L1355.2,941.1z M1440.2,999.3h24.7c5.6,0,9.3-3.5,9.3-9.3c0-6.6-3.7-9-12-9h-5.8V834.8
			c0-3.7-2.4-5.3-7.4-5.3h-26.6c-6.9,0-10.4,3.2-10.4,9.3c0,8.5,5.6,9.3,17.8,9.3h6.9v49.7c-10.1-12.5-24.5-18.6-42.3-18.6
			c-35.1,0-61.7,27.1-61.7,61.4c0,36.4,25,61.9,57.7,61.9c18.3,0,34.3-7.4,44.7-20.5v10.6C1435.2,997.2,1436.2,999.3,1440.2,999.3
			L1440.2,999.3z"/>
		<path id="path2330" d="M1573,981v-96.2c0-3.2-2.4-5.3-7.4-5.3h-38c-6.9,0-10.4,2.9-10.4,9c0,6.1,3.7,9.3,10.9,9.3h25.2V981h-39.6
			c-7.2,0-10.9,2.9-10.9,9c0,6.1,3.5,9.3,10.4,9.3h100.7c7.7,0,10.6-1.9,10.6-9.3c0-6.4-3.2-9-9.8-9L1573,981z M1548.8,842
			c0,10.6,2.7,12.8,13.6,12.8c12.5,0,13.3-2.9,13.3-16.5c0-13.6-1.3-17.5-13.3-17.5C1550.4,820.7,1548.8,824.7,1548.8,842
			L1548.8,842z"/>
		<path id="path2332" d="M1779.4,918.5v-24.2c0-11.2-1.3-15.9-9.3-15.9c-6.6,0-10.1,2.4-10.1,8.2v0.5c-14.4-7.2-27.4-10.9-40.9-10.9
			c-37.2,0-65.4,27.4-65.4,63.3c0,35.9,27.9,63,65.6,63c31.4,0,60.6-19.4,60.6-31.6c0-5.3-3.7-9-9-9c-6.9,0-12,6.4-19.9,11.7
			c-9.3,6.1-19.9,9.6-30.3,9.6c-27.1,0-44.4-18.1-44.4-43.9c0-25,18.6-42.8,45.4-42.8c15.4,0,27.6,7.2,35.6,21.3
			c4,7.2,6.6,10.4,12.2,10.4C1775.9,928.1,1779.4,924.9,1779.4,918.5L1779.4,918.5z"/>
		<path id="path2334" d="M1837.5,928.1c5-21.5,21.8-34.3,44.7-34.3c21,0,37.5,13.6,39.9,34.3H1837.5z M1836.9,945.1h87.2
			c15.9,0,21.5,0,21.5-12.2c0-29-24.2-56.9-63.5-56.9c-40.1,0-67.8,25.8-67.8,63c0,38.8,25,63.5,65.1,63.5c17.5,0,36.4-4.3,54.2-13
			c7.7-3.7,11.4-7.7,11.4-13c0-4.8-4-8.5-9-8.5c-11.7,0-28.4,16.2-54.8,16.2C1854.5,984.2,1838.3,970.1,1836.9,945.1L1836.9,945.1z"
			/>
		<path id="path2336" d="M2044.6,861.4v170.1h-21.8c-5,0-8.5,2.9-8.5,7.7c0,5,3.2,8.2,8.2,8.2h34.8c5.6,0,9.6-3.7,9.6-8.5v-185
			c0-4.8-4-8.5-9.6-8.5h-34.8c-5,0-8.2,2.9-8.2,8c0,4.8,3.5,8,8.5,8H2044.6z"/>
	</g>
	<path id="path3922" inkscape:connector-curvature="0" sodipodi:nodetypes="csc" class="st5" d="M1907.9,2706.5
		c0,0,29,357.3-410.6,357.3c-439.9,0-409.2-357.3-409.2-357.3"/>
	<path id="path3924" inkscape:connector-curvature="0" sodipodi:nodetypes="csc" class="st5" d="M1935,2706.5
		c0,0-26.8,459.4-437.7,459.4c-412.2,0-437.5-459.4-437.5-459.4"/>
	<path id="path3926" inkscape:connector-curvature="0" sodipodi:nodetypes="csc" class="st5" d="M1086.8,2661.5
		c0,0-27.6,2.1-27.6,12.5c0,14.5,0.5,32.5,0.5,32.5"/>
	<path id="path3928" inkscape:connector-curvature="0" sodipodi:nodetypes="cssc" class="st5" d="M1059.3,2685.3c0,0-7.7,0-16.1,0
		c-3.7,0-3.3,18.6,0,18.6c6.8,0,16.5,0,16.5,0"/>
	<path id="path3930" inkscape:connector-curvature="0" sodipodi:nodetypes="cssc" class="st5" d="M1936.2,2685.3c0,0,7.7,0,16.1,0
		c3.7,0,3.3,18.6,0,18.6c-6.8,0-16.5,0-16.5,0"/>
	
		<path id="path3932" inkscape:connector-curvature="0" sodipodi:nodetypes="csccccccccccccccccccccccccccccccccccscccccccccccccccccccccccccccccccccc" class="st6" d="
		M1899,2783.6c0,0,22.5,241.5-388.5,241.5c-409.3,0-387.1-249.1-387.1-249.1v-52.5l39.8-0.2v-58l-39.8,0.4v-52.3l39.8-0.9v-57.6
		l-39.8,0.4v-51.5l39.8-0.6v-57.7l-39.8,0.4v-52.6l39.8-0.5v-58l-39.8,0v-51l39.8-0.4v-57.9l-39.8,0.3v-52.6l39.8-0.4l-0.5-58
		l-39.3,0.2l-0.2-51.3l40-0.4l0-57.8l-40,0.4l0-52.7l40-0.4v-57.9l-39.6-0.2l1.1-56.9c0,0-0.9-197,385.8-197
		c385.4,0,388,197,388,197l0,57.2l-42.5,0l0,57.9l43-0.5v52.9l-43,0.2v57.9l43,0v50.8l-43,0.7v58l43,0.1v52.4h-43v58.2h43v51
		l-43,0.5v57.7l43,0v52.5l-43,0.3v57.8l43-0.2v51.1l-43,0.7v58l43,0.3v52.5h-43v57.9l43-0.2L1899,2783.6z"/>
	<path id="rect3934" class="st7" d="M1164.4,1998.7h268.3c14.1,0,25.6,11.4,25.6,25.6v19.9c0,14.1-11.4,25.6-25.6,25.6h-268.3
		c-14.1,0-25.6-11.4-25.6-25.6v-19.9C1138.8,2010.1,1150.3,1998.7,1164.4,1998.7z"/>
	<path id="rect3936" class="st7" d="M1164.4,2108.1h268.3c14.1,0,25.6,11.4,25.6,25.6v19.9c0,14.1-11.4,25.6-25.6,25.6h-268.3
		c-14.1,0-25.6-11.4-25.6-25.6v-19.9C1138.8,2119.6,1150.3,2108.1,1164.4,2108.1z"/>
	<path id="rect3938" class="st7" d="M1164.4,2218.8h268.3c14.1,0,25.6,11.4,25.6,25.6v19.9c0,14.1-11.4,25.6-25.6,25.6h-268.3
		c-14.1,0-25.6-11.4-25.6-25.6v-19.9C1138.8,2230.2,1150.3,2218.8,1164.4,2218.8z"/>
	<path id="rect3940" class="st7" d="M1164.4,2328.2h268.3c14.1,0,25.6,11.4,25.6,25.6v19.9c0,14.1-11.4,25.6-25.6,25.6h-268.3
		c-14.1,0-25.6-11.4-25.6-25.6v-19.9C1138.8,2339.7,1150.3,2328.2,1164.4,2328.2z"/>
	<path id="rect3942" class="st7" d="M1164.4,2438.8h268.3c14.1,0,25.6,11.4,25.6,25.6v19.9c0,14.1-11.4,25.6-25.6,25.6h-268.3
		c-14.1,0-25.6-11.4-25.6-25.6v-19.9C1138.8,2450.3,1150.3,2438.8,1164.4,2438.8z"/>
	<path id="rect3944" class="st7" d="M1164.4,2548.3h268.3c14.1,0,25.6,11.4,25.6,25.6v19.9c0,14.1-11.4,25.6-25.6,25.6h-268.3
		c-14.1,0-25.6-11.4-25.6-25.6v-19.9C1138.8,2559.7,1150.3,2548.3,1164.4,2548.3z"/>
	<path id="rect3946" class="st7" d="M1164.4,2658.9h268.3c14.1,0,25.6,11.4,25.6,25.6v19.9c0,14.1-11.4,25.6-25.6,25.6h-268.3
		c-14.1,0-25.6-11.4-25.6-25.6v-19.9C1138.8,2670.4,1150.3,2658.9,1164.4,2658.9z"/>
	<path id="rect3948" class="st7" d="M1164.5,1888.2h268.3c14.1,0,25.6,11.4,25.6,25.6v19.9c0,14.1-11.4,25.6-25.6,25.6h-268.3
		c-14.1,0-25.6-11.4-25.6-25.6v-19.9C1138.9,1899.6,1150.3,1888.2,1164.5,1888.2z"/>
	<path id="rect3950" class="st7" d="M1861,1998.7h-279.2c-14.1,0-25.6,11.4-25.6,25.6v19.9c0,14.1,11.4,25.6,25.6,25.6H1861
		c14.1,0,25.6-11.4,25.6-25.6v-19.9C1886.6,2010.1,1875.1,1998.7,1861,1998.7z"/>
	<path id="rect3952" class="st7" d="M1861,2108.1h-279.2c-14.1,0-25.6,11.4-25.6,25.6v19.9c0,14.1,11.4,25.6,25.6,25.6H1861
		c14.1,0,25.6-11.4,25.6-25.6v-19.9C1886.6,2119.6,1875.1,2108.1,1861,2108.1z"/>
	<path id="rect3954" class="st7" d="M1861,2218.8h-279.2c-14.1,0-25.6,11.4-25.6,25.6v19.9c0,14.1,11.4,25.6,25.6,25.6H1861
		c14.1,0,25.6-11.4,25.6-25.6v-19.9C1886.6,2230.2,1875.1,2218.8,1861,2218.8z"/>
	<path id="rect3956" class="st7" d="M1861,2328.2h-279.2c-14.1,0-25.6,11.4-25.6,25.6v19.9c0,14.1,11.4,25.6,25.6,25.6H1861
		c14.1,0,25.6-11.4,25.6-25.6v-19.9C1886.6,2339.7,1875.1,2328.2,1861,2328.2z"/>
	<path id="rect3958" class="st7" d="M1861,2438.8h-279.2c-14.1,0-25.6,11.4-25.6,25.6v19.9c0,14.1,11.4,25.6,25.6,25.6H1861
		c14.1,0,25.6-11.4,25.6-25.6v-19.9C1886.6,2450.3,1875.1,2438.8,1861,2438.8z"/>
	<path id="rect3960" class="st7" d="M1861,2548.3h-279.2c-14.1,0-25.6,11.4-25.6,25.6v19.9c0,14.1,11.4,25.6,25.6,25.6H1861
		c14.1,0,25.6-11.4,25.6-25.6v-19.9C1886.6,2559.7,1875.1,2548.3,1861,2548.3z"/>
	<path id="rect3962" class="st7" d="M1861,2658.9h-279.2c-14.1,0-25.6,11.4-25.6,25.6v19.9c0,14.1,11.4,25.6,25.6,25.6H1861
		c14.1,0,25.6-11.4,25.6-25.6v-19.9C1886.6,2670.4,1875.1,2658.9,1861,2658.9z"/>
	<path id="rect3964" class="st7" d="M1860.9,1888.2h-279.2c-14.1,0-25.6,11.4-25.6,25.6v19.9c0,14.1,11.4,25.6,25.6,25.6h279.2
		c14.1,0,25.6-11.4,25.6-25.6v-19.9C1886.4,1899.6,1875,1888.2,1860.9,1888.2z"/>
	<path id="path3966" inkscape:connector-curvature="0" sodipodi:nodetypes="ccscc" class="st8" d="M1086.8,2810.7
		c0,0,0.6,19.7,0.9,31.2c0,0-18.4,346.5,410.8,346.5c428,0,432.9-346.5,432.9-346.5c1.5-13.4,0.6-39.9,0.6-39.9"/>
	<path id="path3968" inkscape:connector-curvature="0" sodipodi:nodetypes="csc" class="st9" d="M1123.4,2813.3
		c0,0-14.9,300.8,376.5,300.8c393.1,0,399.1-300.5,399.1-300.5"/>
	<path id="path3970" inkscape:connector-curvature="0" sodipodi:nodetypes="csc" class="st10" d="M1086.6,2799.9c0,0,0-8.9,1.3-16.7
		c2.6-15.9,28.3-16.1,28.3-16.1"/>
	<path id="path3972" inkscape:connector-curvature="0" sodipodi:nodetypes="csc" class="st10" d="M1932.1,2800.2
		c0,0-0.2-9.2-1.5-17.1c-2.6-15.9-26.4-15.9-26.4-15.9"/>
	<path id="path3974" inkscape:connector-curvature="0" sodipodi:nodetypes="caac" class="st11" d="M1087.1,2819.6
		c0,0-18.7,3.3-24.1-2.8c-4.7-5.3-4.8-16.1,0-21.4c5.4-5.8,23.7-1.9,23.7-1.9"/>
	<path id="path3976" inkscape:connector-curvature="0" sodipodi:nodetypes="caac" class="st12" d="M1933.5,2820.1
		c0,0,18.2,3.1,23.4-2.8c4.8-5.4,4.9-16.4,0-21.8c-5.5-5.9-24.2-1.9-24.2-1.9"/>
	<path id="path3978" inkscape:connector-curvature="0" class="st13" d="M1071.7,2813.7c-3.5-0.5-4.4-1.1-5.3-2.9
		c-1.1-2.4-1.1-7,0-9.1c0.4-0.8,1.3-1.7,2-2c1.1-0.5,10.9-0.7,11.3-0.4c0.1,0,0.3,3.3,0.4,7.1c0.3,6.9,0.3,7-0.7,7.2
		C1078.3,2814.1,1073.6,2814,1071.7,2813.7L1071.7,2813.7z"/>
	<path id="path3980" inkscape:connector-curvature="0" class="st14" d="M1939.7,2813.9h-1.4l-0.2-7c-0.1-5.5-0.1-7.1,0.1-7.2
		c0.5-0.4,4.1-0.6,7.3-0.5c3.7,0,5.8,0.5,6.6,1.4c2,2.3,1.9,9.6-0.1,11.8C1950.7,2813.7,1946.1,2814.3,1939.7,2813.9L1939.7,2813.9z
		"/>
	<path id="path3982" inkscape:connector-curvature="0" class="st15" d="M1321,3155.8c-43.7-14.5-83.6-36-113.6-61.2
		c-11.8-9.9-32.2-30.5-41.8-42.3c-34.4-42.1-58.6-99.6-67.7-160.5c-2.9-19.7-5.5-88-3.8-102.5c1-8.6,3.4-11.5,11.5-13.7
		c10.4-2.9,10.6-2.7,10.7,10c0.6,58.5,1.7,69.7,9.6,101.1c26.6,105.6,102.3,180.6,215.5,213.7c88.4,25.9,210.3,27.4,304.2,3.9
		c121.9-30.6,206-103.3,243.4-210.5c11-31.6,15.7-57.8,17-95.1l0.9-24.4l4.1,0.9c5.1,1.1,10.8,3.9,12.1,6.1
		c1.7,2.8,2.6,35.8,1.6,57.1c-4.9,98.9-51.9,193.5-126,253.5c-33.9,27.5-76,49.8-122.8,64.9l-15.6,5.1h-161.2h-161.2L1321,3155.8z"
		/>
	<rect id="rect3984" x="84.7" y="3176.9" class="st16" width="2806.5" height="72.8"/>
</g>
</svg>
