<?xml version="1.0" encoding="utf-8"?>
<!-- Generator: Adobe Illustrator 28.1.0, SVG Export Plug-In . SVG Version: 6.00 Build 0)  -->
<svg version="1.1"
	 id="svg8" xmlns:sodipodi="http://sodipodi.sourceforge.net/DTD/sodipodi-0.dtd" xmlns:inkscape="http://www.inkscape.org/namespaces/inkscape" xmlns:svg="http://www.w3.org/2000/svg" xmlns:rdf="http://www.w3.org/1999/02/22-rdf-syntax-ns#" xmlns:dc="http://purl.org/dc/elements/1.1/" xmlns:cc="http://creativecommons.org/ns#" inkscape:export-xdpi="96" inkscape:export-ydpi="96" inkscape:version="0.92.5 (2060ec1f9f, 2020-04-08)" sodipodi:docname="PiC logo rebranding.svg"
	 xmlns="http://www.w3.org/2000/svg" xmlns:xlink="http://www.w3.org/1999/xlink" x="0px" y="0px" viewBox="0 0 512 512"
	 style="enable-background:new 0 0 512 512;" xml:space="preserve">
<style type="text/css">
	.st0{fill:#FB6400;}
	.st1{fill:#FE7E29;}
	.st2{fill:#E6E6E6;}
	.st3{fill:#FFFFFF;}
	.st4{fill:#FEDB53;}
	.st5{fill:none;}
	.st6{fill:#313131;stroke:#FFFFFF;stroke-width:2.2181;stroke-linecap:round;stroke-linejoin:round;stroke-miterlimit:151.1811;}
	.st7{fill:#F9F9F9;}
	.st8{fill:none;stroke:#FFFFFF;stroke-width:2.1779;stroke-linecap:square;stroke-miterlimit:151.1811;}
	.st9{fill:none;stroke:#FFFFFF;stroke-width:2.1576;stroke-linecap:square;stroke-miterlimit:151.1811;}
	.st10{fill:none;stroke:#FFFFFF;stroke-width:2.1596;stroke-linecap:square;stroke-miterlimit:151.1811;}
	.st11{fill:none;stroke:#FFFFFF;stroke-width:2.2181;stroke-linecap:square;stroke-miterlimit:151.1811;}
	.st12{fill:none;stroke:#FFFFFF;stroke-width:2.2593;stroke-linecap:square;stroke-miterlimit:151.1811;}
	.st13{fill:#313131;stroke:#FFFFFF;stroke-width:0.1961;stroke-linecap:square;stroke-miterlimit:151.1811;}
	.st14{fill:#313131;stroke:#FFFFFF;stroke-width:9.802866e-02;stroke-linecap:square;stroke-miterlimit:151.1811;}
	.st15{fill:#313131;stroke:#313131;stroke-width:0.122;stroke-linecap:round;stroke-linejoin:round;stroke-miterlimit:151.1811;}
</style>
<sodipodi:namedview  bordercolor="#666666" borderopacity="1.0" id="base" inkscape:current-layer="layer1" inkscape:cx="224.42589" inkscape:cy="120.71437" inkscape:document-units="px" inkscape:guide-bbox="true" inkscape:pageopacity="0.0" inkscape:pageshadow="2" inkscape:showpageshadow="false" inkscape:window-height="2114" inkscape:window-maximized="0" inkscape:window-width="1918" inkscape:window-x="-10" inkscape:window-y="0" inkscape:zoom="1.4142136" pagecolor="#ffffff" showgrid="false" showguides="true" units="px">
	<sodipodi:guide  id="guide3487" inkscape:locked="false" orientation="0,1" position="-332.35422,617.06815"></sodipodi:guide>
	<sodipodi:guide  id="guide3489" inkscape:locked="false" orientation="0,1" position="-332.35422,481.60148"></sodipodi:guide>
	<sodipodi:guide  id="guide4082" inkscape:locked="false" orientation="1,0" position="-201.36029,153.72846"></sodipodi:guide>
</sodipodi:namedview>
<g id="layer1" transform="translate(0,-161.53333)" inkscape:groupmode="layer" inkscape:label="Livello 1">
	<g id="g3896" transform="matrix(2.7074408,0,0,2.7074408,132.20203,-102.24398)">
		<rect id="rect3894" x="-48.8" y="97.4" class="st0" width="189.1" height="189.1"/>
	</g>
	<circle id="circle3898" class="st1" cx="256.6" cy="524.9" r="165.5"/>
	<path id="path3900" inkscape:connector-curvature="0" sodipodi:nodetypes="cscscscsccscsc" class="st2" d="M24.8,316.7
		c0,0,6.1-71,55.2-99.3c62.2-35.9,118.5-4.8,118.5-4.8S266.3,92.4,390,138.9c125.2,47.1,92.8,176.7,92.8,176.7s40.8,13.9,40.8,66.6
		c0,69.9-67.5,64.7-67.5,64.7s-26.6,33.5-68.9,33.9c-53.2,0.5-73.9-34.6-73.9-34.6h-76.7c0,0-18.6,67.4-96.9,67.5
		c-75.4,0.1-97.9-67.9-97.9-67.9s-53.4-1.9-53.4-61.2C-11.6,330.1,24.8,316.7,24.8,316.7L24.8,316.7z"/>
	<path id="path3902" inkscape:connector-curvature="0" sodipodi:nodetypes="cscscscsccscsc" class="st3" d="M44.6,322.3
		c0,0,5.5-64.9,50.4-90.8c56.9-32.8,108.3-4.4,108.3-4.4s62.1-109.9,175.2-67.3c114.5,43.1,84.9,161.5,84.9,161.5
		s37.3,12.7,37.3,60.9c0,63.9-61.7,59.1-61.7,59.1s-24.3,30.7-63,31c-48.6,0.5-67.6-31.7-67.6-31.7h-70.1c0,0-17,61.6-88.6,61.7
		c-69,0.1-89.5-62.1-89.5-62.1s-48.8-1.8-48.8-55.9C11.3,334.5,44.6,322.3,44.6,322.3z"/>
	<circle id="circle3904" class="st4" cx="256.6" cy="578.3" r="99.2"/>
	<g id="flowRoot3912" transform="matrix(2.5141107,0,0,2.5141107,508.7703,424.12253)">
		<path id="path2339" d="M-156.7-44.1c-0.4,0-0.6-0.1-0.8-0.2c-0.2-0.2-0.3-0.4-0.3-0.6c0.1-0.2,0.2-0.5,0.4-0.6
			c0.2-0.2,0.6-0.3,1.1-0.3c0.7,0,1.4-0.1,2.1-0.3c0.7-0.2,1.3-0.5,1.8-0.8c1.3-0.8,2.3-1.9,3-3.4c0.8-1.5,1.3-2.8,1.5-4.2
			c0.3-1.4,0.3-2.6,0-3.5c-0.2-1-0.8-1.5-1.5-1.5c-0.6,0.1-1.1,0.3-1.6,0.6c-0.5,0.4-0.9,0.8-1.4,1.3c-0.4,0.5-0.8,1-1.2,1.6
			c-0.4,0.5-0.7,1-0.9,1.5c-0.5,0.8-1.2,2.2-2.1,4.2c-0.8,1.9-1.7,4-2.5,6.2c-0.8,2.2-1.5,4.2-2,6.1c-0.5,1.8-0.7,3-0.5,3.4
			c0.2,0.4,0.2,0.6-0.1,0.7c-0.2,0.1-0.4,0.1-0.7,0c-0.2-0.2-0.5-0.5-0.7-0.9c-0.2-0.5-0.2-1.1-0.2-1.9c0.1-1.9,0.7-4.4,1.8-7.5
			c1.1-3.1,2.3-6.9,3.6-11.2c0.5-1.8,0.6-3.1,0.1-3.8c-0.4-0.8-1.1-1-2.1-0.6c-1.2,0.4-2.3,1.4-3.2,2.8c-0.9,1.5-1.4,2.9-1.4,4.3
			c0,0.7-0.2,1.1-0.5,1.5c-0.3,0.3-0.6,0.4-0.9,0.4c-0.3-0.1-0.6-0.3-0.9-0.6c-0.2-0.4-0.3-0.9-0.2-1.5c0.2-1.1,0.6-2.1,1.2-2.9
			c0.5-0.8,1.1-1.6,1.7-2.2c0.7-0.7,1.3-1.2,2-1.5c0.7-0.4,1.4-0.6,1.9-0.7c1.4-0.2,2.6,0.1,3.5,0.7c1,0.7,1.3,2,1.1,3.9
			c0.9-1.4,1.9-2.5,2.9-3.3c1.1-0.8,2.1-1.2,3-1.4c1.8-0.2,2.9,0.2,3.5,1.5c0.7,1.1,0.8,2.6,0.5,4.3c-0.2,1.6-0.9,3.3-2,5.1
			c-1.1,1.7-2.5,3-4.2,3.9c-1.1,0.6-2.2,1-3.3,1.3C-155.9-44.2-156.5-44.1-156.7-44.1L-156.7-44.1z M-147.9-51
			c0.5-0.7,0.9-1.5,1.1-2.4c0.2-0.8,0.4-1.6,0.4-2.4s-0.1-1.3-0.2-1.8c-0.1-0.5-0.2-0.8-0.3-0.8c0.1,0.2,0.2,0.7,0.2,1.4
			c0.1,0.6,0,1.3-0.1,2c-0.1,0.7-0.2,1.5-0.4,2.3C-147.3-52-147.6-51.4-147.9-51L-147.9-51z M-162.5-37.1c0.1,0.1,0.1,0.1,0.2-0.1
			c0.1-0.2,0-0.3-0.1-0.3C-162.7-37.4-162.7-37.3-162.5-37.1z M-162.3-38.3c0.1,0.1,0.2,0.1,0.3,0c0.1-0.2,0-0.3-0.1-0.4
			c-0.1,0-0.2,0.1-0.3,0.2C-162.5-38.5-162.4-38.4-162.3-38.3L-162.3-38.3z M-162.6-35.8c0.1,0.1,0.2,0,0.2-0.2
			c0.1-0.2,0-0.3-0.1-0.3C-162.9-36.3-162.9-36.1-162.6-35.8L-162.6-35.8z M-157.6-52.2c0.1-0.4,0-0.3-0.3,0.4
			c-0.3,0.7-0.7,1.5-1.1,2.5c-0.4,1-0.7,1.9-1,2.9c-0.3,1-0.4,1.5-0.4,1.6c0.1-0.3,0.2-0.8,0.5-1.4c0.2-0.7,0.5-1.4,0.7-2.1
			c0.3-0.8,0.6-1.5,0.9-2.2C-157.9-51.1-157.7-51.7-157.6-52.2L-157.6-52.2z M-156.9-54.5c0.2,0.1,0.3,0,0.4-0.2
			c0.1-0.2,0-0.4-0.1-0.5c-0.1,0-0.2,0.1-0.4,0.3C-157-54.7-157-54.6-156.9-54.5z M-157.3-52.9c0.2,0,0.3-0.1,0.4-0.3s0-0.3-0.1-0.4
			c-0.1,0-0.2,0.1-0.4,0.3C-157.5-53.1-157.4-53-157.3-52.9z"/>
		<path id="path2341" d="M-140.1-51.4c0.9,0.1,1.5,0.3,1.9,0.8c0.4,0.4,0.5,1,0.5,1.6s-0.3,1.4-0.8,2.1c-0.4,0.7-0.9,1.3-1.5,1.8
			c-1,0.8-2,1.4-3,1.9c-1,0.4-2,0.8-3,1.2c-0.2,0.5-0.3,1.1-0.3,1.8c0,0.6,0.1,1.1,0.4,1.6c0.2,0.5,0.6,0.8,1.1,1.1
			c0.5,0.2,1.2,0.1,2.1-0.2c1.8-0.7,3.3-1.8,4.5-3.4c1.3-1.6,2.4-3.4,3.5-5.2c0.2-0.2,0.3-0.2,0.5,0c0.1,0.1,0.2,0.3,0.1,0.5
			c-0.5,0.9-1.1,1.9-1.8,3.1c-0.7,1.1-1.6,2.2-2.5,3.2c-0.9,1-1.9,1.8-3.1,2.4c-1.1,0.6-2.3,0.8-3.5,0.6c-1.4-0.2-2.4-0.8-2.9-1.8
			c-0.5-1.1-0.7-2.4-0.4-3.9c0.2-1.1,0.6-2.2,1.2-3.3c0.5-1.1,1.1-2.1,1.8-3c0.8-0.9,1.6-1.6,2.5-2.2
			C-142-51.2-141.1-51.5-140.1-51.4L-140.1-51.4z M-140.3-50c-0.5,0.1-1,0.4-1.6,0.9c-0.5,0.5-1.1,1.1-1.7,1.8
			c-0.5,0.7-1,1.4-1.5,2.3c-0.4,0.8-0.7,1.5-0.8,2.3c1.1-0.4,2.1-0.8,2.9-1.3c0.9-0.5,1.7-1.1,2.4-1.7c0.4-0.4,0.8-0.8,1.1-1.4
			c0.3-0.5,0.5-1.1,0.5-1.5c0.1-0.5,0.1-0.8-0.2-1.1C-139.4-50.1-139.8-50.2-140.3-50L-140.3-50z M-140.2-50.9
			c-0.7-0.1-1.4,0.1-1.9,0.4c-0.5,0.2-1,0.6-1.5,1c-0.4,0.4-0.8,0.7-1,1.1c-0.2,0.4-0.3,0.6-0.3,0.6c0.1-0.2,0.3-0.4,0.5-0.7
			c0.3-0.4,0.7-0.7,1.1-1c0.4-0.4,0.9-0.7,1.4-0.9C-141.4-50.7-140.8-50.9-140.2-50.9L-140.2-50.9z M-145.3-47.3
			c0.1,0.1,0.2,0.2,0.3,0.1c0.2-0.1,0.2-0.2,0.1-0.4C-145.2-47.8-145.3-47.7-145.3-47.3L-145.3-47.3z M-145.8-46.4
			c0.1,0.1,0.2,0.2,0.3,0.1c0.1-0.1,0.1-0.2,0-0.4c-0.1-0.1-0.2-0.1-0.3,0C-145.9-46.6-145.9-46.5-145.8-46.4z M-147.1-38.8
			c0.2,0.8,0.5,1.4,1,1.6c0.5,0.2,0.8,0.3,1.1,0.3c-0.3,0-0.6-0.1-1-0.3C-146.3-37.4-146.7-38-147.1-38.8z"/>
		<path id="path2343" d="M-119.5-47.1c0.1-0.1,0.2-0.2,0.4-0.1c0.2,0.1,0.3,0.2,0.3,0.3c-0.4,0.8-0.8,1.9-1.5,3.2
			c-0.6,1.2-1.3,2.4-2.1,3.5s-1.6,2.1-2.4,2.8c-0.8,0.7-1.7,1-2.5,0.9c-0.8-0.1-1.4-0.5-1.7-1.1c-0.2-0.7-0.3-1.5-0.3-2.4
			c0.1-1,0.4-2.1,0.7-3.3c0.4-1.2,0.8-2.4,1.3-3.7c0.4-1.1,0.7-1.9,0.7-2.4c0.1-0.5,0.1-0.7-0.2-0.6c-0.2,0-0.5,0.2-1,0.6
			c-0.4,0.4-1,1-1.6,1.6c-1.7,1.9-3.1,3.6-4.1,5.1c-1,1.5-1.6,3.1-1.8,5.1c0,0.5-0.1,0.8-0.4,1c-0.2,0.1-0.5,0.1-0.7-0.1
			c-0.5-0.4-0.6-1.2-0.5-2.5c0.2-1.4,0.5-2.8,1-4.3c0.5-1.5,1-2.9,1.5-4.2c0.5-1.3,0.9-2.1,1.1-2.4c0.4-0.5,0.9-0.9,1.4-1.2
			c0.5-0.2,1-0.3,1.4-0.3c0.4,0.1,0.6,0.3,0.6,0.6c0.1,0.4-0.1,0.8-0.5,1.5c-0.7,0.8-1.3,1.7-1.8,2.7c-0.5,1-0.8,1.8-1.1,2.4
			c0.4-0.7,1-1.4,1.6-2.3c0.7-0.8,1.5-1.6,2.2-2.4c0.8-0.7,1.5-1.3,2.3-1.7s1.4-0.5,1.9-0.4c0.5,0.2,1,0.6,1.3,1.3
			c0.3,0.6,0.1,1.7-0.5,3.2c-0.1,0.2-0.5,0.9-1.2,2.2c-0.6,1.3-1.1,2.6-1.4,3.9c-0.2,0.6-0.3,1.2-0.4,1.7c0,0.5,0.1,0.9,0.3,1.2
			c0.2,0.2,0.5,0.2,0.9,0c0.4-0.2,1-0.7,1.6-1.5c1-1.2,1.8-2.4,2.6-3.5C-121.3-43.7-120.4-45.2-119.5-47.1L-119.5-47.1z
			 M-132.3-50.4c-0.6,0.7-1.1,1.4-1.4,2.1c-0.3,0.7-0.4,1.2-0.4,1.5C-133.7-47.8-133.1-49-132.3-50.4L-132.3-50.4z M-136.1-39.1
			c0.1,0.1,0.2,0.1,0.3-0.1c0.1-0.2,0-0.4-0.1-0.4C-136.4-39.5-136.4-39.4-136.1-39.1z M-136-40.4c0.1,0.1,0.2,0.1,0.3-0.1
			c0.1-0.2,0-0.4-0.1-0.4C-136.2-40.9-136.3-40.7-136-40.4z M-136.4-37.7c0.2,0.1,0.3,0,0.5-0.3c0.1-0.2-0.1-0.3-0.4-0.3
			C-136.6-38.1-136.7-38-136.4-37.7z M-127.8-41.6c-0.1,0.5-0.1,0.4,0.2-0.2c0.3-0.6,0.6-1.4,0.9-2.3c0.3-1,0.5-1.9,0.7-2.7
			c0.2-0.9,0.3-1.4,0.2-1.5c-0.1,0.7-0.3,1.7-0.8,3.1C-127.1-43.8-127.5-42.6-127.8-41.6L-127.8-41.6z M-128.5-39.7
			c0,0.1,0.1,0.1,0.2-0.1c0.1-0.2,0.1-0.4,0-0.4c-0.1,0-0.2,0.1-0.3,0.2C-128.7-39.9-128.6-39.8-128.5-39.7L-128.5-39.7z
			 M-128.7-38.3c0.2,0.1,0.3,0,0.3-0.3c0-0.2-0.1-0.3-0.2-0.3C-128.9-38.8-128.9-38.6-128.7-38.3z"/>
		<path id="path2345" d="M-113.1-47.7c-0.2,0.4-0.5,0.6-0.9,0.7c-0.3,0.1-0.6,0.1-0.8,0c-0.2-0.1-0.3-0.3-0.4-0.5
			c0-0.3,0.2-0.6,0.5-1c0.4-0.5,0.8-0.9,1.1-1.4c0.3-0.4,0.3-0.9,0.1-1.5c-0.2-0.5-0.5-0.7-1-0.7c-0.5-0.1-1,0.1-1.5,0.4
			c-0.5,0.2-0.9,0.6-1.4,1.2c-0.4,0.5-0.6,1-0.6,1.6c0,0.5,0.1,1.1,0.4,1.5c0.2,0.5,0.5,1,0.9,1.5c0.4,0.5,0.7,1,1.1,1.5
			c0.4,0.4,0.8,0.9,1.1,1.5c0.6,1.1,0.8,2.2,0.7,3.3c-0.1,1-0.5,1.9-1.1,2.7c-0.6,0.7-1.4,1.3-2.3,1.7c-0.9,0.4-1.8,0.5-2.8,0.4
			c-0.8-0.1-1.5-0.4-2-0.8c-0.5-0.4-0.8-0.9-0.9-1.5c-0.1-0.6-0.1-1.2,0.1-1.8c0.2-0.6,0.5-1.1,1-1.5c0.4-0.5,0.9-0.8,1.4-0.8
			c0.4-0.1,0.7,0,0.9,0.2c0.2,0.1,0.3,0.4,0.3,0.7c0,0.3-0.2,0.6-0.7,0.9c-1.3,0.9-1.8,1.8-1.7,2.5c0.1,0.7,0.7,1.2,1.9,1.4
			c0.7,0.1,1.4,0,2-0.4c0.6-0.4,1.1-0.9,1.4-1.5c0.4-0.7,0.5-1.4,0.4-2.3c-0.1-0.9-0.5-1.9-1.2-2.9c-0.4-0.4-0.8-0.9-1.2-1.4
			c-0.4-0.5-0.7-1.1-1.1-1.5c-0.3-0.5-0.5-1.1-0.6-1.6c-0.2-0.6-0.2-1.2-0.1-1.7c0.2-1,0.6-1.8,1.4-2.4c0.7-0.7,1.5-1.1,2.4-1.5
			c1.9-0.5,3.2-0.1,3.9,1.3c0.3,0.5,0.4,1.2,0.4,1.9C-112.3-48.9-112.6-48.3-113.1-47.7L-113.1-47.7z M-115.3-52.3
			c-0.8-0.1-1.4,0.1-1.9,0.4c-0.5,0.2-0.9,0.5-1.2,0.9c-0.3,0.4-0.5,0.7-0.6,1.1c-0.1,0.3-0.2,0.5-0.2,0.5c0.1-0.2,0.3-0.4,0.5-0.7
			c0.2-0.3,0.4-0.6,0.7-0.9s0.7-0.6,1.1-0.8C-116.5-52.2-115.9-52.3-115.3-52.3L-115.3-52.3z M-119.2-48.7c0.1,0.1,0.2,0,0.3-0.1
			c0.1-0.2,0-0.3-0.2-0.4C-119.4-49.1-119.5-49-119.2-48.7z M-119.1-47.6c0.1,0.1,0.2,0,0.3-0.1c0.1-0.2,0.1-0.3-0.2-0.4
			c-0.1,0-0.2,0.1-0.3,0.2C-119.3-47.8-119.2-47.7-119.1-47.6L-119.1-47.6z M-116-36.9c0.8-0.8,1.2-1.6,1.1-2.4
			c-0.1-0.7-0.2-1.3-0.5-1.6c0.2,0.5,0.3,1.1,0.3,1.7C-115.1-38.6-115.4-37.8-116-36.9z"/>
		<path id="path2347" d="M-110-39.2c-0.1,0.6-0.2,1.1-0.1,1.4c0.1,0.2,0.2,0.4,0.4,0.5c0.2,0,0.5-0.1,0.7-0.2
			c0.3-0.2,0.6-0.4,0.8-0.6c1-1,2-2.2,2.9-3.5c0.9-1.3,1.8-2.9,2.7-4.6c0.1-0.1,0.2-0.2,0.4-0.1c0.2,0.1,0.3,0.2,0.3,0.3
			c-0.1,0.1-0.1,0.2-0.2,0.5c-0.1,0.2-0.2,0.4-0.3,0.7c-0.1,0.2-0.3,0.6-0.5,1c-0.2,0.5-0.6,1.3-1.2,2.2c-0.5,0.8-1.2,1.7-1.9,2.5
			c-0.7,0.8-1.4,1.5-2.2,2.1c-0.7,0.5-1.4,0.8-2.1,0.6c-0.7-0.1-1.2-0.4-1.5-0.9c-0.2-0.5-0.4-1.3-0.4-2.2c0.1-1,0.4-2.1,0.8-3.4
			c0.4-1.4,0.7-2.6,1.1-3.5c0.2-0.7,0.4-1.3,0.6-1.8c0.3-0.5,0.5-0.9,0.6-1c0.4-0.5,0.8-0.9,1.2-1c0.5-0.2,0.8-0.2,1.1,0
			c0.3,0.1,0.5,0.4,0.5,0.8c0.1,0.4-0.1,0.9-0.5,1.5c-0.4,0.7-0.8,1.4-1.2,2c-0.3,0.6-0.6,1.2-0.9,1.9c-0.2,0.6-0.5,1.3-0.7,2.1
			C-109.5-41.3-109.7-40.3-110-39.2L-110-39.2z M-110.9-37.8c0.1-0.8,0.1-1.5,0.2-2.2c0.1-0.7,0.2-1.3,0.3-1.8
			c-0.1,0.2-0.2,0.8-0.4,1.7C-111-39.1-111-38.3-110.9-37.8L-110.9-37.8z M-108.2-48.7c-0.4,0.1-0.5,0.3-0.1,0.5
			c0.1,0.1,0.2,0,0.3-0.2C-107.9-48.5-108-48.6-108.2-48.7z M-108.8-47.4c-0.1,0-0.2,0.1-0.3,0.2c0,0.1,0.1,0.2,0.2,0.3
			c0.1,0.1,0.2,0.1,0.2-0.1C-108.6-47.3-108.7-47.4-108.8-47.4L-108.8-47.4z M-107.4-49.8c-0.4,0.1-0.4,0.3-0.2,0.5
			c0.1,0.1,0.2,0.1,0.3-0.1C-107.2-49.5-107.3-49.7-107.4-49.8L-107.4-49.8z M-107-52.2c0-0.2,0.1-0.8,0.4-1.6
			c0.2-0.8,0.5-1.5,0.8-2c0.2-0.5,0.5-0.8,0.9-0.8c0.4-0.1,0.8-0.1,1,0.1c0.3,0.2,0.5,0.5,0.5,0.9c0.1,0.4-0.1,0.8-0.5,1.4
			c-0.5,0.7-1,1.1-1.4,1.5c-0.4,0.3-0.7,0.7-0.9,1.2c-0.1,0.2-0.3,0.3-0.5,0.3C-106.9-51.5-107-51.7-107-52.2L-107-52.2z"/>
		<path id="path2349" d="M-95.9-51.4c0.9,0.1,1.5,0.3,1.9,0.8c0.4,0.4,0.5,1,0.5,1.6s-0.3,1.4-0.8,2.1c-0.4,0.7-0.9,1.3-1.5,1.8
			c-1,0.8-2,1.4-3,1.9c-1,0.4-2,0.8-3,1.2c-0.2,0.5-0.3,1.1-0.3,1.8c0,0.6,0.1,1.1,0.4,1.6c0.2,0.5,0.6,0.8,1.1,1.1
			c0.5,0.2,1.2,0.1,2.1-0.2c1.8-0.7,3.3-1.8,4.5-3.4c1.3-1.6,2.4-3.4,3.5-5.2c0.2-0.2,0.3-0.2,0.5,0C-90-46.1-90-46-90-45.8
			c-0.5,0.9-1.1,1.9-1.8,3.1c-0.7,1.1-1.6,2.2-2.5,3.2c-0.9,1-1.9,1.8-3.1,2.4c-1.1,0.6-2.3,0.8-3.5,0.6c-1.4-0.2-2.4-0.8-2.9-1.8
			c-0.5-1.1-0.7-2.4-0.4-3.9c0.2-1.1,0.6-2.2,1.2-3.3c0.5-1.1,1.1-2.1,1.8-3c0.8-0.9,1.6-1.6,2.5-2.2
			C-97.8-51.2-96.9-51.5-95.9-51.4L-95.9-51.4z M-96.1-50c-0.5,0.1-1,0.4-1.6,0.9c-0.5,0.5-1.1,1.1-1.7,1.8c-0.5,0.7-1,1.4-1.5,2.3
			c-0.4,0.8-0.7,1.5-0.8,2.3c1.1-0.4,2.1-0.8,2.9-1.3c0.9-0.5,1.7-1.1,2.4-1.7c0.4-0.4,0.8-0.8,1.1-1.4c0.3-0.5,0.5-1.1,0.5-1.5
			c0.1-0.5,0.1-0.8-0.2-1.1C-95.2-50.1-95.6-50.2-96.1-50L-96.1-50z M-96-50.9c-0.7-0.1-1.4,0.1-1.9,0.4c-0.5,0.2-1,0.6-1.5,1
			c-0.4,0.4-0.8,0.7-1,1.1c-0.2,0.4-0.3,0.6-0.3,0.6c0.1-0.2,0.3-0.4,0.5-0.7c0.3-0.4,0.7-0.7,1.1-1c0.4-0.4,0.9-0.7,1.4-0.9
			C-97.2-50.7-96.6-50.9-96-50.9L-96-50.9z M-101.1-47.3c0.1,0.1,0.2,0.2,0.3,0.1c0.2-0.1,0.2-0.2,0.1-0.4
			C-101-47.8-101.1-47.7-101.1-47.3L-101.1-47.3z M-101.6-46.4c0.1,0.1,0.2,0.2,0.3,0.1c0.1-0.1,0.1-0.2,0-0.4
			c-0.1-0.1-0.2-0.1-0.3,0C-101.7-46.6-101.7-46.5-101.6-46.4z M-102.9-38.8c0.2,0.8,0.5,1.4,1,1.6c0.5,0.2,0.8,0.3,1.1,0.3
			c-0.3,0-0.6-0.1-1-0.3C-102.1-37.4-102.5-38-102.9-38.8z"/>
		<path id="path2351" d="M-91.4-37.3c-0.1,0.5-0.2,0.8-0.5,1c-0.3,0.1-0.6,0.1-0.8-0.1c-0.5-0.4-0.7-1.2-0.5-2.6
			c0.2-1.4,0.5-2.9,1.1-4.4c0.5-1.6,1-3,1.6-4.4c0.6-1.3,1-2.1,1.3-2.4c0.5-0.5,1-0.9,1.5-1.1c0.5-0.2,1-0.2,1.3-0.1
			c0.4,0.1,0.5,0.3,0.5,0.6c0.1,0.4-0.2,0.8-0.6,1.5c-0.8,1-1.5,1.9-1.9,2.7c-0.4,0.8-0.7,1.5-0.8,1.9c0.2-0.2,0.7-0.8,1.3-1.6
			c0.6-0.8,1.3-1.7,2-2.4c0.8-0.8,1.6-1.5,2.4-2.1c0.8-0.6,1.6-0.8,2.4-0.6c0.7,0.2,1.1,0.8,1.4,1.8c0.2,1,0,2.1-0.6,3.3
			c-0.3,0.6-0.6,1-1,1.2c-0.4,0.2-0.7,0.2-1,0.1c-0.2-0.1-0.4-0.4-0.5-0.8c0-0.4,0.2-0.9,0.5-1.5c0.1-0.2,0.3-0.5,0.5-0.9
			c0.2-0.4,0.3-0.7,0.5-1.1c0.2-0.4,0.3-0.7,0.3-0.9c0-0.3-0.1-0.5-0.3-0.5c-0.4,0-0.8,0.2-1.5,0.7c-0.6,0.4-1.3,1-2.1,1.8
			c-0.7,0.7-1.5,1.6-2.3,2.5c-0.7,0.9-1.4,1.8-2,2.7c-0.2,0.2-0.4,0.6-0.6,1.1c-0.2,0.5-0.4,1-0.6,1.6c-0.2,0.5-0.3,1.1-0.5,1.6
			C-91.3-38-91.4-37.6-91.4-37.3L-91.4-37.3z M-88.5-49.7c-0.6,0.7-1.1,1.4-1.5,2.1c-0.3,0.7-0.4,1.1-0.4,1.4
			C-89.9-47.1-89.3-48.3-88.5-49.7z M-91.9-40.4c-0.3,0.5-0.5,1.2-0.6,2c-0.2,0.8-0.2,1.2-0.2,1.4c0.1-0.4,0.2-0.9,0.4-1.5
			C-92.2-39.3-92.1-39.9-91.9-40.4L-91.9-40.4z M-91.8-41c0.1,0.1,0.2,0.1,0.4-0.1c0.1-0.2,0-0.4-0.1-0.4c-0.1,0-0.2,0.1-0.3,0.2
			C-92-41.2-92-41.1-91.8-41L-91.8-41z M-88.3-50c0.1,0.1,0.2,0.1,0.4-0.1c0.1-0.2,0.1-0.3,0-0.4C-88.3-50.5-88.4-50.3-88.3-50z"/>
		<path id="path2353" d="M-78.8-39.2c-0.1,0.6-0.2,1.1-0.1,1.4c0.1,0.2,0.2,0.4,0.4,0.5c0.2,0,0.5-0.1,0.7-0.2
			c0.3-0.2,0.6-0.4,0.8-0.6c1-1,2-2.2,2.9-3.5c0.9-1.3,1.8-2.9,2.7-4.6c0.1-0.1,0.2-0.2,0.4-0.1c0.2,0.1,0.3,0.2,0.3,0.3
			c-0.1,0.1-0.1,0.2-0.2,0.5c-0.1,0.2-0.2,0.4-0.3,0.7c-0.1,0.2-0.3,0.6-0.5,1c-0.2,0.5-0.6,1.3-1.2,2.2c-0.5,0.8-1.2,1.7-1.9,2.5
			c-0.7,0.8-1.4,1.5-2.2,2.1c-0.7,0.5-1.4,0.8-2.1,0.6c-0.7-0.1-1.2-0.4-1.5-0.9c-0.2-0.5-0.4-1.3-0.4-2.2c0.1-1,0.4-2.1,0.8-3.4
			c0.4-1.4,0.7-2.6,1.1-3.5c0.2-0.7,0.4-1.3,0.6-1.8c0.3-0.5,0.5-0.9,0.6-1c0.4-0.5,0.8-0.9,1.2-1c0.5-0.2,0.8-0.2,1.1,0
			c0.3,0.1,0.5,0.4,0.5,0.8c0.1,0.4-0.1,0.9-0.5,1.5c-0.4,0.7-0.8,1.4-1.2,2c-0.3,0.6-0.6,1.2-0.9,1.9c-0.2,0.6-0.5,1.3-0.7,2.1
			C-78.3-41.3-78.6-40.3-78.8-39.2L-78.8-39.2z M-79.7-37.8c0.1-0.8,0.1-1.5,0.2-2.2c0.1-0.7,0.2-1.3,0.3-1.8
			c-0.1,0.2-0.2,0.8-0.4,1.7C-79.8-39.1-79.8-38.3-79.7-37.8L-79.7-37.8z M-77-48.7c-0.4,0.1-0.5,0.3-0.1,0.5c0.1,0.1,0.2,0,0.3-0.2
			C-76.7-48.5-76.8-48.6-77-48.7z M-77.6-47.4c-0.1,0-0.2,0.1-0.3,0.2c0,0.1,0.1,0.2,0.2,0.3c0.1,0.1,0.2,0.1,0.2-0.1
			C-77.5-47.3-77.5-47.4-77.6-47.4L-77.6-47.4z M-76.3-49.8c-0.4,0.1-0.4,0.3-0.2,0.5c0.1,0.1,0.2,0.1,0.3-0.1
			C-76-49.5-76.1-49.7-76.3-49.8L-76.3-49.8z M-75.8-52.2c0-0.2,0.1-0.8,0.4-1.6c0.2-0.8,0.5-1.5,0.8-2c0.2-0.5,0.5-0.8,0.9-0.8
			c0.4-0.1,0.8-0.1,1,0.1c0.3,0.2,0.5,0.5,0.5,0.9c0.1,0.4-0.1,0.8-0.5,1.4c-0.5,0.7-1,1.1-1.4,1.5c-0.4,0.3-0.7,0.7-0.9,1.2
			c-0.1,0.2-0.3,0.3-0.5,0.3C-75.7-51.5-75.8-51.7-75.8-52.2L-75.8-52.2z"/>
	</g>
	<g id="flowRoot3920" transform="matrix(1.1839685,0,0,1.0995484,268.57828,311.03806)">
		<path id="path2318" d="M-86.1,63.3v-29h3.7c0.9,0,1.5-0.5,1.5-1.4c0-0.9-0.5-1.4-1.4-1.4h-6c-1,0-1.6,0.6-1.6,1.5v31.6
			c0,0.8,0.6,1.5,1.6,1.5h6c0.9,0,1.4-0.5,1.4-1.4c0-0.8-0.6-1.3-1.5-1.3H-86.1z"/>
		<path id="path2320" d="M-56.1,54.6V38.2c0-0.5-0.4-0.9-1.3-0.9h-6.5c-1.2,0-1.8,0.5-1.8,1.5c0,1,0.6,1.6,1.9,1.6h4.3v14.2h-6.8
			c-1.2,0-1.9,0.5-1.9,1.5c0,1,0.6,1.6,1.8,1.6h17.2c1.3,0,1.8-0.3,1.8-1.6c0-1.1-0.5-1.5-1.7-1.5L-56.1,54.6z M-60.2,30.9
			c0,1.8,0.5,2.2,2.3,2.2c2.1,0,2.3-0.5,2.3-2.8s-0.2-3-2.3-3C-60,27.3-60.2,28-60.2,30.9L-60.2,30.9z"/>
		<path id="path2322" d="M-39.1,54.6h-0.5c-1.8,0-2.6,0.3-2.6,1.5c0,1,0.6,1.6,1.9,1.6h5.2c1.7,0,2.4-0.1,2.4-1.6
			c0-1.2-0.6-1.6-2.1-1.6c-0.3,0-0.6,0-1,0v-9.2c0-3.3,3.1-5.3,5.8-5.3c2.9,0,4.5,1.8,4.5,5.3v9.2h-0.7c-1.6,0-2.2,0.3-2.2,1.5
			c0,1.5,0.6,1.6,2.2,1.6h4.9c1.6,0,2.4-0.3,2.4-1.6c0-1.1-0.7-1.5-2.1-1.5h-1v-10c0-5.1-3-7.9-7.2-7.9c-2.3,0-4.4,1-6.5,3v-1.5
			c0-0.5-0.4-0.9-1.3-0.9h-2c-2.1,0-3.1,0-3.1,1.5c0,1.1,0.6,1.6,2,1.6h1L-39.1,54.6z"/>
		<path id="path2324" d="M3.4,32.2c-2.1-0.9-4.1-1.4-6.2-1.4c-7.3,0-12.7,5.9-12.7,13.8c0,8.1,5.4,13.7,12.6,13.7
			c2.9,0,5.2-0.8,7.7-2.4c1.6-1,2.5-1.8,2.5-2.8c0-0.9-0.7-1.6-1.6-1.6c-0.8,0-1.7,1-3.1,1.8C0.8,54.5-1,55-2.7,55
			c-4.9,0-8.8-3.9-8.8-10.3c0-7,3.5-10.8,8.7-10.8c2.9,0,5.2,1.6,5.8,3.7c0.5,2,0.3,3.1,2.2,3.1c1.3,0,1.6-0.6,1.6-1.8
			c0-0.3-0.1-2.1-0.1-5.5c0-1.5-0.1-2.2-1.6-2.2C4.2,31.1,3.7,31.5,3.4,32.2L3.4,32.2z"/>
		<path id="path2326" d="M35.3,47.6c0-6.1-4.5-10.7-11.6-10.7s-11.6,4.6-11.6,10.7s4.6,10.7,11.6,10.7S35.3,53.7,35.3,47.6z
			 M23.7,55.2c-4.6,0-7.8-3.3-7.8-7.7s3.2-7.7,7.8-7.7s7.8,3.3,7.8,7.7C31.5,52,28.3,55.2,23.7,55.2z"/>
		<path id="path2328" d="M43.1,47.8c0-4.4,2.8-7.3,7-7.3c4.1,0,7,3,7,7.1s-2.9,7.2-7,7.2C46.1,54.8,43.1,52,43.1,47.8L43.1,47.8z
			 M57.7,57.8h4.2c1,0,1.6-0.6,1.6-1.6c0-1.1-0.6-1.5-2-1.5h-1V29.7c0-0.6-0.4-0.9-1.3-0.9h-4.5c-1.2,0-1.8,0.5-1.8,1.6
			c0,1.5,1,1.6,3,1.6h1.2v8.5c-1.7-2.1-4.2-3.2-7.2-3.2c-6,0-10.5,4.6-10.5,10.5c0,6.2,4.3,10.6,9.8,10.6c3.1,0,5.9-1.3,7.6-3.5v1.8
			C56.8,57.4,57,57.8,57.7,57.8L57.7,57.8z"/>
		<path id="path2330" d="M80.3,54.6V38.2c0-0.5-0.4-0.9-1.3-0.9h-6.5c-1.2,0-1.8,0.5-1.8,1.5c0,1,0.6,1.6,1.9,1.6H77v14.2h-6.8
			c-1.2,0-1.9,0.5-1.9,1.5c0,1,0.6,1.6,1.8,1.6h17.2c1.3,0,1.8-0.3,1.8-1.6c0-1.1-0.5-1.5-1.7-1.5L80.3,54.6z M76.2,30.9
			c0,1.8,0.5,2.2,2.3,2.2c2.1,0,2.3-0.5,2.3-2.8s-0.2-3-2.3-3C76.5,27.3,76.2,28,76.2,30.9L76.2,30.9z"/>
		<path id="path2332" d="M115.5,44v-4.1c0-1.9-0.2-2.7-1.6-2.7c-1.1,0-1.7,0.4-1.7,1.4v0.1c-2.4-1.2-4.7-1.9-7-1.9
			c-6.3,0-11.2,4.7-11.2,10.8s4.8,10.7,11.2,10.7c5.4,0,10.3-3.3,10.3-5.4c0-0.9-0.6-1.5-1.5-1.5c-1.2,0-2,1.1-3.4,2
			c-1.6,1-3.4,1.6-5.2,1.6c-4.6,0-7.6-3.1-7.6-7.5c0-4.3,3.2-7.3,7.8-7.3c2.6,0,4.7,1.2,6.1,3.6c0.7,1.2,1.1,1.8,2.1,1.8
			C114.9,45.6,115.5,45.1,115.5,44L115.5,44z"/>
		<path id="path2334" d="M125.4,45.6c0.9-3.7,3.7-5.9,7.6-5.9c3.6,0,6.4,2.3,6.8,5.9H125.4z M125.4,48.5h14.9c2.7,0,3.7,0,3.7-2.1
			c0-4.9-4.1-9.7-10.8-9.7c-6.8,0-11.6,4.4-11.6,10.7c0,6.6,4.3,10.8,11.1,10.8c3,0,6.2-0.7,9.3-2.2c1.3-0.6,2-1.3,2-2.2
			c0-0.8-0.7-1.5-1.5-1.5c-2,0-4.9,2.8-9.3,2.8C128.3,55.2,125.6,52.8,125.4,48.5L125.4,48.5z"/>
		<path id="path2336" d="M160.8,34.2v29h-3.7c-0.9,0-1.5,0.5-1.5,1.3c0,0.9,0.5,1.4,1.4,1.4h5.9c1,0,1.6-0.6,1.6-1.5V33
			c0-0.8-0.7-1.5-1.6-1.5H157c-0.9,0-1.4,0.5-1.4,1.4c0,0.8,0.6,1.4,1.5,1.4H160.8z"/>
	</g>
	<path id="path3922" inkscape:connector-curvature="0" sodipodi:nodetypes="csc" class="st5" d="M325.6,595.8c0,0,5,61-70.1,61
		c-75.1,0-69.8-61-69.8-61"/>
	<path id="path3924" inkscape:connector-curvature="0" sodipodi:nodetypes="csc" class="st5" d="M330.2,595.8
		c0,0-4.6,78.4-74.7,78.4c-70.3,0-74.7-78.4-74.7-78.4"/>
	<path id="path3926" inkscape:connector-curvature="0" sodipodi:nodetypes="csc" class="st5" d="M185.5,588.1c0,0-4.7,0.4-4.7,2.1
		c0,2.5,0.1,5.5,0.1,5.5"/>
	<path id="path3928" inkscape:connector-curvature="0" sodipodi:nodetypes="cssc" class="st5" d="M180.8,592.2c0,0-1.3,0-2.7,0
		c-0.6,0-0.6,3.2,0,3.2c1.2,0,2.8,0,2.8,0"/>
	<path id="path3930" inkscape:connector-curvature="0" sodipodi:nodetypes="cssc" class="st5" d="M330.4,592.2c0,0,1.3,0,2.7,0
		c0.6,0,0.6,3.2,0,3.2c-1.2,0-2.8,0-2.8,0"/>
	
		<path id="path3932" inkscape:connector-curvature="0" sodipodi:nodetypes="csccccccccccccccccccccccccccccccccccscccccccccccccccccccccccccccccccccc" class="st6" d="
		M324.1,609c0,0,3.8,41.2-66.3,41.2c-69.8,0-66.1-42.5-66.1-42.5v-9l6.8,0v-9.9l-6.8,0.1v-8.9l6.8-0.2v-9.8l-6.8,0.1v-8.8l6.8-0.1
		v-9.9l-6.8,0.1v-9l6.8-0.1v-9.9l-6.8,0v-8.7l6.8-0.1v-9.9l-6.8,0.1v-9l6.8-0.1l-0.1-9.9l-6.7,0l0-8.8l6.8-0.1l0-9.9l-6.8,0.1l0-9
		l6.8-0.1v-9.9l-6.8,0l0.2-9.7c0,0-0.2-33.6,65.8-33.6c65.8,0,66.2,33.6,66.2,33.6l0,9.8l-7.3,0l0,9.9l7.3-0.1v9l-7.3,0v9.9l7.3,0
		v8.7l-7.3,0.1v9.9l7.3,0v8.9h-7.3v9.9h7.3v8.7l-7.3,0.1v9.8l7.3,0v9l-7.3,0.1v9.9l7.3,0v8.7l-7.3,0.1v9.9l7.3,0.1v9h-7.3v9.9l7.3,0
		L324.1,609z"/>
	<path id="rect3934" class="st7" d="M198.7,475h45.8c2.4,0,4.4,2,4.4,4.4v3.4c0,2.4-2,4.4-4.4,4.4h-45.8c-2.4,0-4.4-2-4.4-4.4v-3.4
		C194.4,477,196.3,475,198.7,475z"/>
	<path id="rect3936" class="st7" d="M198.7,493.7h45.8c2.4,0,4.4,2,4.4,4.4v3.4c0,2.4-2,4.4-4.4,4.4h-45.8c-2.4,0-4.4-2-4.4-4.4
		v-3.4C194.4,495.7,196.3,493.7,198.7,493.7z"/>
	<path id="rect3938" class="st7" d="M198.7,512.6h45.8c2.4,0,4.4,2,4.4,4.4v3.4c0,2.4-2,4.4-4.4,4.4h-45.8c-2.4,0-4.4-2-4.4-4.4V517
		C194.4,514.5,196.3,512.6,198.7,512.6z"/>
	<path id="rect3940" class="st7" d="M198.7,531.3h45.8c2.4,0,4.4,2,4.4,4.4v3.4c0,2.4-2,4.4-4.4,4.4h-45.8c-2.4,0-4.4-2-4.4-4.4
		v-3.4C194.4,533.2,196.3,531.3,198.7,531.3z"/>
	<path id="rect3942" class="st7" d="M198.7,550.2h45.8c2.4,0,4.4,2,4.4,4.4v3.4c0,2.4-2,4.4-4.4,4.4h-45.8c-2.4,0-4.4-2-4.4-4.4
		v-3.4C194.4,552.1,196.3,550.2,198.7,550.2z"/>
	<path id="rect3944" class="st7" d="M198.7,568.8h45.8c2.4,0,4.4,2,4.4,4.4v3.4c0,2.4-2,4.4-4.4,4.4h-45.8c-2.4,0-4.4-2-4.4-4.4
		v-3.4C194.4,570.8,196.3,568.8,198.7,568.8z"/>
	<path id="rect3946" class="st7" d="M198.7,587.7h45.8c2.4,0,4.4,2,4.4,4.4v3.4c0,2.4-2,4.4-4.4,4.4h-45.8c-2.4,0-4.4-2-4.4-4.4
		v-3.4C194.4,589.7,196.3,587.7,198.7,587.7z"/>
	<path id="rect3948" class="st7" d="M198.7,456.2h45.8c2.4,0,4.4,2,4.4,4.4v3.4c0,2.4-2,4.4-4.4,4.4h-45.8c-2.4,0-4.4-2-4.4-4.4
		v-3.4C194.4,458.1,196.3,456.2,198.7,456.2z"/>
	<path id="rect3950" class="st7" d="M317.6,475H270c-2.4,0-4.4,2-4.4,4.4v3.4c0,2.4,2,4.4,4.4,4.4h47.6c2.4,0,4.4-2,4.4-4.4v-3.4
		C322,477,320,475,317.6,475z"/>
	<path id="rect3952" class="st7" d="M317.6,493.7H270c-2.4,0-4.4,2-4.4,4.4v3.4c0,2.4,2,4.4,4.4,4.4h47.6c2.4,0,4.4-2,4.4-4.4v-3.4
		C322,495.7,320,493.7,317.6,493.7z"/>
	<path id="rect3954" class="st7" d="M317.6,512.6H270c-2.4,0-4.4,2-4.4,4.4v3.4c0,2.4,2,4.4,4.4,4.4h47.6c2.4,0,4.4-2,4.4-4.4V517
		C322,514.5,320,512.6,317.6,512.6z"/>
	<path id="rect3956" class="st7" d="M317.6,531.3H270c-2.4,0-4.4,2-4.4,4.4v3.4c0,2.4,2,4.4,4.4,4.4h47.6c2.4,0,4.4-2,4.4-4.4v-3.4
		C322,533.2,320,531.3,317.6,531.3z"/>
	<path id="rect3958" class="st7" d="M317.6,550.2H270c-2.4,0-4.4,2-4.4,4.4v3.4c0,2.4,2,4.4,4.4,4.4h47.6c2.4,0,4.4-2,4.4-4.4v-3.4
		C322,552.1,320,550.2,317.6,550.2z"/>
	<path id="rect3960" class="st7" d="M317.6,568.8H270c-2.4,0-4.4,2-4.4,4.4v3.4c0,2.4,2,4.4,4.4,4.4h47.6c2.4,0,4.4-2,4.4-4.4v-3.4
		C322,570.8,320,568.8,317.6,568.8z"/>
	<path id="rect3962" class="st7" d="M317.6,587.7H270c-2.4,0-4.4,2-4.4,4.4v3.4c0,2.4,2,4.4,4.4,4.4h47.6c2.4,0,4.4-2,4.4-4.4v-3.4
		C322,589.7,320,587.7,317.6,587.7z"/>
	<path id="rect3964" class="st7" d="M317.6,456.2h-47.6c-2.4,0-4.4,2-4.4,4.4v3.4c0,2.4,2,4.4,4.4,4.4h47.6c2.4,0,4.4-2,4.4-4.4
		v-3.4C321.9,458.1,320,456.2,317.6,456.2z"/>
	<path id="path3966" inkscape:connector-curvature="0" sodipodi:nodetypes="ccscc" class="st8" d="M185.5,613.6c0,0,0.1,3.4,0.2,5.3
		c0,0-3.1,59.1,70.1,59.1c73,0,73.9-59.1,73.9-59.1c0.3-2.3,0.1-6.8,0.1-6.8"/>
	<path id="path3968" inkscape:connector-curvature="0" sodipodi:nodetypes="csc" class="st9" d="M191.7,614c0,0-2.5,51.3,64.2,51.3
		c67.1,0,68.1-51.3,68.1-51.3"/>
	<path id="path3970" inkscape:connector-curvature="0" sodipodi:nodetypes="csc" class="st10" d="M185.5,611.8c0,0,0-1.5,0.2-2.9
		c0.4-2.7,4.8-2.7,4.8-2.7"/>
	<path id="path3972" inkscape:connector-curvature="0" sodipodi:nodetypes="csc" class="st10" d="M329.7,611.8c0,0,0-1.6-0.2-2.9
		c-0.4-2.7-4.5-2.7-4.5-2.7"/>
	<path id="path3974" inkscape:connector-curvature="0" sodipodi:nodetypes="caac" class="st11" d="M185.5,615.1c0,0-3.2,0.6-4.1-0.5
		c-0.8-0.9-0.8-2.8,0-3.6c0.9-1,4.1-0.3,4.1-0.3"/>
	<path id="path3976" inkscape:connector-curvature="0" sodipodi:nodetypes="caac" class="st12" d="M330,615.2c0,0,3.1,0.5,4-0.5
		c0.8-0.9,0.8-2.8,0-3.7c-0.9-1-4.1-0.3-4.1-0.3"/>
	<path id="path3978" inkscape:connector-curvature="0" class="st13" d="M182.9,614.1c-0.6-0.1-0.8-0.2-0.9-0.5
		c-0.2-0.4-0.2-1.2,0-1.6c0.1-0.1,0.2-0.3,0.3-0.3c0.2-0.1,1.9-0.1,1.9-0.1c0,0,0,0.6,0.1,1.2c0,1.2,0,1.2-0.1,1.2
		C184,614.2,183.2,614.2,182.9,614.1L182.9,614.1z"/>
	<path id="path3980" inkscape:connector-curvature="0" class="st14" d="M331,614.2h-0.2l0-1.2c0-0.9,0-1.2,0-1.2
		c0.1-0.1,0.7-0.1,1.2-0.1c0.6,0,1,0.1,1.1,0.2c0.3,0.4,0.3,1.6,0,2C332.9,614.1,332.1,614.2,331,614.2L331,614.2z"/>
	<path id="path3982" inkscape:connector-curvature="0" class="st15" d="M225.5,672.5c-7.5-2.5-14.3-6.1-19.4-10.4
		c-2-1.7-5.5-5.2-7.1-7.2c-5.9-7.2-10-17-11.5-27.4c-0.5-3.4-0.9-15-0.7-17.5c0.2-1.5,0.6-2,2-2.3c1.8-0.5,1.8-0.5,1.8,1.7
		c0.1,10,0.3,11.9,1.6,17.2c4.5,18,17.4,30.8,36.8,36.5c15.1,4.4,35.9,4.7,51.9,0.7c20.8-5.2,35.2-17.6,41.5-35.9
		c1.9-5.4,2.7-9.9,2.9-16.2l0.1-4.2l0.7,0.1c0.9,0.2,1.8,0.7,2.1,1c0.3,0.5,0.4,6.1,0.3,9.7c-0.8,16.9-8.9,33-21.5,43.3
		c-5.8,4.7-13,8.5-20.9,11.1l-2.7,0.9h-27.5h-27.5L225.5,672.5z"/>
</g>
</svg>
