<?xml version="1.0" encoding="utf-8"?>
<!-- Generator: Adobe Illustrator 28.1.0, SVG Export Plug-In . SVG Version: 6.00 Build 0)  -->
<svg version="1.1"
	 id="svg8" xmlns:sodipodi="http://sodipodi.sourceforge.net/DTD/sodipodi-0.dtd" xmlns:rdf="http://www.w3.org/1999/02/22-rdf-syntax-ns#" xmlns:inkscape="http://www.inkscape.org/namespaces/inkscape" xmlns:svg="http://www.w3.org/2000/svg" xmlns:cc="http://creativecommons.org/ns#" xmlns:dc="http://purl.org/dc/elements/1.1/" inkscape:version="0.92.5 (2060ec1f9f, 2020-04-08)"
	 xmlns="http://www.w3.org/2000/svg" xmlns:xlink="http://www.w3.org/1999/xlink" x="0px" y="0px" viewBox="0 0 512 512"
	 style="enable-background:new 0 0 512 512;" xml:space="preserve">
<style type="text/css">
	.st0{fill:#FE7E29;}
	.st1{fill:#FEDB53;}
	.st2{fill:none;}
	.st3{fill:#313131;stroke:#FFFFFF;stroke-width:3.4319;stroke-linecap:round;stroke-linejoin:round;stroke-miterlimit:151.1811;}
	.st4{fill:#F9F9F9;}
	.st5{fill:none;stroke:#FFFFFF;stroke-width:3.3382;stroke-linecap:square;stroke-miterlimit:151.1811;}
	.st6{fill:none;stroke:#FFFFFF;stroke-width:3.3413;stroke-linecap:square;stroke-miterlimit:151.1811;}
	.st7{fill:none;stroke:#FFFFFF;stroke-width:3.4319;stroke-linecap:square;stroke-miterlimit:151.1811;}
	.st8{fill:none;stroke:#FFFFFF;stroke-width:3.4956;stroke-linecap:square;stroke-miterlimit:151.1811;}
	.st9{fill:#313131;stroke:#FFFFFF;stroke-width:0.3033;stroke-linecap:square;stroke-miterlimit:151.1811;}
	.st10{fill:#313131;stroke:#FFFFFF;stroke-width:0.1517;stroke-linecap:square;stroke-miterlimit:151.1811;}
	.st11{fill:#313131;stroke:#313131;stroke-width:0.1888;stroke-linecap:round;stroke-linejoin:round;stroke-miterlimit:151.1811;}
	.st12{fill:none;stroke:#FFFFFF;stroke-width:3.3696;stroke-linecap:square;stroke-miterlimit:151.1811;}
</style>
<sodipodi:namedview  bordercolor="#666666" borderopacity="1.0" id="base" inkscape:current-layer="layer1" inkscape:cx="224.42589" inkscape:cy="120.71437" inkscape:document-units="px" inkscape:guide-bbox="true" inkscape:pageopacity="0.0" inkscape:pageshadow="2" inkscape:showpageshadow="false" inkscape:window-height="2114" inkscape:window-maximized="0" inkscape:window-width="1918" inkscape:window-x="-10" inkscape:window-y="0" inkscape:zoom="1.4142136" pagecolor="#ffffff" showgrid="false" showguides="true" units="px">
	<sodipodi:guide  id="guide3487" inkscape:locked="false" orientation="0,1" position="-332.35422,617.06815"></sodipodi:guide>
	<sodipodi:guide  id="guide3489" inkscape:locked="false" orientation="0,1" position="-332.35422,481.60148"></sodipodi:guide>
	<sodipodi:guide  id="guide4082" inkscape:locked="false" orientation="1,0" position="-201.36029,153.72846"></sodipodi:guide>
</sodipodi:namedview>
<g id="layer1" transform="translate(0,-161.53333)" inkscape:groupmode="layer" inkscape:label="Livello 1">
	<g>
		<circle id="circle3898" class="st0" cx="256" cy="417.5" r="256"/>
		<circle id="circle3904" class="st1" cx="256" cy="500.1" r="153.5"/>
		<path id="path3922" inkscape:connector-curvature="0" sodipodi:nodetypes="csc" class="st2" d="M362.7,527.3
			c0,0,7.7,94.3-108.4,94.3c-116.1,0-108-94.3-108-94.3"/>
		<path id="path3924" inkscape:connector-curvature="0" sodipodi:nodetypes="csc" class="st2" d="M369.9,527.3
			c0,0-7.1,121.3-115.6,121.3c-108.8,0-115.5-121.3-115.5-121.3"/>
		<path id="path3926" inkscape:connector-curvature="0" sodipodi:nodetypes="csc" class="st2" d="M145.9,515.4c0,0-7.3,0.5-7.3,3.3
			c0,3.8,0.1,8.6,0.1,8.6"/>
		<path id="path3928" inkscape:connector-curvature="0" sodipodi:nodetypes="cssc" class="st2" d="M138.6,521.7c0,0-2,0-4.3,0
			c-1,0-0.9,4.9,0,4.9c1.8,0,4.4,0,4.4,0"/>
		<path id="path3930" inkscape:connector-curvature="0" sodipodi:nodetypes="cssc" class="st2" d="M370.2,521.7c0,0,2,0,4.3,0
			c1,0,0.9,4.9,0,4.9c-1.8,0-4.4,0-4.4,0"/>
		
			<path id="path3932" inkscape:connector-curvature="0" sodipodi:nodetypes="csccccccccccccccccccccccccccccccccccscccccccccccccccccccccccccccccccccc" class="st3" d="
			M360.4,547.7c0,0,5.9,63.8-102.6,63.8c-108.1,0-102.2-65.8-102.2-65.8v-13.9l10.5-0.1v-15.3l-10.5,0.1v-13.8l10.5-0.2v-15.2
			l-10.5,0.1v-13.6l10.5-0.2v-15.2l-10.5,0.1v-13.9l10.5-0.1v-15.3l-10.5,0v-13.5l10.5-0.1v-15.3l-10.5,0.1v-13.9l10.5-0.1L166,371
			l-10.4,0.1l0-13.5l10.6-0.1l0-15.3l-10.6,0.1l0-13.9l10.6-0.1V313l-10.5-0.1l0.3-15c0,0-0.2-52,101.9-52
			c101.8,0,102.4,52,102.4,52l0,15.1l-11.2,0l0,15.3l11.4-0.1v14l-11.4,0v15.3l11.4,0v13.4l-11.4,0.2v15.3l11.4,0v13.8H349v15.4
			h11.4v13.5l-11.4,0.1v15.2l11.4,0v13.9l-11.4,0.1v15.3l11.4-0.1v13.5l-11.4,0.2v15.3l11.4,0.1v13.9H349v15.3l11.4-0.1L360.4,547.7
			z"/>
		<path id="rect3934" class="st4" d="M166.4,340.4h70.8c3.7,0,6.7,3,6.7,6.7v5.2c0,3.7-3,6.7-6.7,6.7h-70.8c-3.7,0-6.7-3-6.7-6.7
			v-5.2C159.7,343.4,162.7,340.4,166.4,340.4z"/>
		<path id="rect3936" class="st4" d="M166.4,369.3h70.8c3.7,0,6.7,3,6.7,6.7v5.2c0,3.7-3,6.7-6.7,6.7h-70.8c-3.7,0-6.7-3-6.7-6.7
			v-5.2C159.7,372.3,162.7,369.3,166.4,369.3z"/>
		<path id="rect3938" class="st4" d="M166.4,398.5h70.8c3.7,0,6.7,3,6.7,6.7v5.2c0,3.7-3,6.7-6.7,6.7h-70.8c-3.7,0-6.7-3-6.7-6.7
			v-5.2C159.7,401.6,162.7,398.5,166.4,398.5z"/>
		<path id="rect3940" class="st4" d="M166.4,427.4h70.8c3.7,0,6.7,3,6.7,6.7v5.2c0,3.7-3,6.7-6.7,6.7h-70.8c-3.7,0-6.7-3-6.7-6.7
			v-5.2C159.7,430.5,162.7,427.4,166.4,427.4z"/>
		<path id="rect3942" class="st4" d="M166.4,456.6h70.8c3.7,0,6.7,3,6.7,6.7v5.2c0,3.7-3,6.7-6.7,6.7h-70.8c-3.7,0-6.7-3-6.7-6.7
			v-5.2C159.7,459.7,162.7,456.6,166.4,456.6z"/>
		<path id="rect3944" class="st4" d="M166.4,485.5h70.8c3.7,0,6.7,3,6.7,6.7v5.2c0,3.7-3,6.7-6.7,6.7h-70.8c-3.7,0-6.7-3-6.7-6.7
			v-5.2C159.7,488.6,162.7,485.5,166.4,485.5z"/>
		<path id="rect3946" class="st4" d="M166.4,514.8h70.8c3.7,0,6.7,3,6.7,6.7v5.2c0,3.7-3,6.7-6.7,6.7h-70.8c-3.7,0-6.7-3-6.7-6.7
			v-5.2C159.7,517.8,162.7,514.8,166.4,514.8z"/>
		<path id="rect3948" class="st4" d="M166.4,311.3h70.8c3.7,0,6.7,3,6.7,6.7v5.2c0,3.7-3,6.7-6.7,6.7h-70.8c-3.7,0-6.7-3-6.7-6.7
			V318C159.7,314.3,162.7,311.3,166.4,311.3z"/>
		<path id="rect3950" class="st4" d="M350.3,340.4h-73.7c-3.7,0-6.7,3-6.7,6.7v5.2c0,3.7,3,6.7,6.7,6.7h73.7c3.7,0,6.7-3,6.7-6.7
			v-5.2C357.1,343.4,354.1,340.4,350.3,340.4z"/>
		<path id="rect3952" class="st4" d="M350.3,369.3h-73.7c-3.7,0-6.7,3-6.7,6.7v5.2c0,3.7,3,6.7,6.7,6.7h73.7c3.7,0,6.7-3,6.7-6.7
			v-5.2C357.1,372.3,354.1,369.3,350.3,369.3z"/>
		<path id="rect3954" class="st4" d="M350.3,398.5h-73.7c-3.7,0-6.7,3-6.7,6.7v5.2c0,3.7,3,6.7,6.7,6.7h73.7c3.7,0,6.7-3,6.7-6.7
			v-5.2C357.1,401.6,354.1,398.5,350.3,398.5z"/>
		<path id="rect3956" class="st4" d="M350.3,427.4h-73.7c-3.7,0-6.7,3-6.7,6.7v5.2c0,3.7,3,6.7,6.7,6.7h73.7c3.7,0,6.7-3,6.7-6.7
			v-5.2C357.1,430.5,354.1,427.4,350.3,427.4z"/>
		<path id="rect3958" class="st4" d="M350.3,456.6h-73.7c-3.7,0-6.7,3-6.7,6.7v5.2c0,3.7,3,6.7,6.7,6.7h73.7c3.7,0,6.7-3,6.7-6.7
			v-5.2C357.1,459.7,354.1,456.6,350.3,456.6z"/>
		<path id="rect3960" class="st4" d="M350.3,485.5h-73.7c-3.7,0-6.7,3-6.7,6.7v5.2c0,3.7,3,6.7,6.7,6.7h73.7c3.7,0,6.7-3,6.7-6.7
			v-5.2C357.1,488.6,354.1,485.5,350.3,485.5z"/>
		<path id="rect3962" class="st4" d="M350.3,514.8h-73.7c-3.7,0-6.7,3-6.7,6.7v5.2c0,3.7,3,6.7,6.7,6.7h73.7c3.7,0,6.7-3,6.7-6.7
			v-5.2C357.1,517.8,354.1,514.8,350.3,514.8z"/>
		<path id="rect3964" class="st4" d="M350.3,311.3h-73.7c-3.7,0-6.7,3-6.7,6.7v5.2c0,3.7,3,6.7,6.7,6.7h73.7c3.7,0,6.7-3,6.7-6.7
			V318C357,314.3,354,311.3,350.3,311.3z"/>
		<path id="path3968" inkscape:connector-curvature="0" sodipodi:nodetypes="csc" class="st5" d="M155.6,555.5
			c0,0-3.9,79.4,99.4,79.4c103.8,0,105.4-79.3,105.4-79.3"/>
		<path id="path3970" inkscape:connector-curvature="0" sodipodi:nodetypes="csc" class="st6" d="M145.9,552c0,0,0-2.3,0.3-4.4
			c0.7-4.2,7.5-4.2,7.5-4.2"/>
		<path id="path3972" inkscape:connector-curvature="0" sodipodi:nodetypes="csc" class="st6" d="M369.1,552.1c0,0,0-2.4-0.4-4.5
			c-0.7-4.2-7-4.2-7-4.2"/>
		<path id="path3974" inkscape:connector-curvature="0" sodipodi:nodetypes="caac" class="st7" d="M146,557.2c0,0-4.9,0.9-6.4-0.7
			c-1.3-1.4-1.3-4.3,0-5.6c1.4-1.5,6.3-0.5,6.3-0.5"/>
		<path id="path3976" inkscape:connector-curvature="0" sodipodi:nodetypes="caac" class="st8" d="M369.5,557.3c0,0,4.8,0.8,6.2-0.7
			c1.3-1.4,1.3-4.3,0-5.7c-1.5-1.6-6.4-0.5-6.4-0.5"/>
		<path id="path3978" inkscape:connector-curvature="0" class="st9" d="M141.9,555.6c-0.9-0.1-1.2-0.3-1.4-0.8
			c-0.3-0.6-0.3-1.9,0-2.4c0.1-0.2,0.3-0.4,0.5-0.5c0.3-0.1,2.9-0.2,3-0.1c0,0,0.1,0.9,0.1,1.9c0.1,1.8,0.1,1.8-0.2,1.9
			C143.7,555.7,142.4,555.7,141.9,555.6L141.9,555.6z"/>
		<path id="path3980" inkscape:connector-curvature="0" class="st10" d="M371.1,555.7h-0.4l0-1.9c0-1.4,0-1.9,0-1.9
			c0.1-0.1,1.1-0.2,1.9-0.1c1,0,1.5,0.1,1.7,0.4c0.5,0.6,0.5,2.5,0,3.1C374,555.6,372.8,555.8,371.1,555.7L371.1,555.7z"/>
		<path id="path3982" inkscape:connector-curvature="0" class="st11" d="M207.8,646c-11.6-3.8-22.1-9.5-30-16.2
			c-3.1-2.6-8.5-8.1-11-11.2c-9.1-11.1-15.5-26.3-17.9-42.4c-0.8-5.2-1.4-23.2-1-27.1c0.3-2.3,0.9-3,3-3.6c2.8-0.8,2.8-0.7,2.8,2.6
			c0.2,15.4,0.4,18.4,2.5,26.7c7,27.9,27,47.7,56.9,56.4c23.3,6.8,55.5,7.2,80.3,1c32.2-8.1,54.4-27.3,64.3-55.6
			c2.9-8.3,4.1-15.3,4.5-25.1l0.2-6.5l1.1,0.2c1.4,0.3,2.8,1,3.2,1.6c0.5,0.7,0.7,9.4,0.4,15.1c-1.3,26.1-13.7,51.1-33.3,66.9
			c-9,7.3-20.1,13.1-32.4,17.1l-4.1,1.3c0,0-17,6.1-43,6.1c-23.2,0-42.1-6.1-42.1-6.1L207.8,646z"/>
		<path id="path3966" inkscape:connector-curvature="0" sodipodi:nodetypes="ccscc" class="st12" d="M145.9,554.8
			c0,0,0.2,5.2,0.2,8.2c0,0-4.9,91.5,108.5,91.5c113,0,114.3-91.5,114.3-91.5c0.4-3.5,0.2-10.5,0.2-10.5"/>
	</g>
</g>
</svg>
